<svg width="510" height="370" viewBox="0 0 510 370" fill="none" xmlns="http://www.w3.org/2000/svg">
<g clip-path="url(#clip0_108_281)">
<path d="M417.043 342.701H103.554C100.64 342.701 98.2701 340.331 98.2701 337.418C98.2701 334.504 100.64 332.134 103.554 332.134H417.043C419.956 332.134 422.326 334.504 422.326 337.418C422.326 340.331 419.956 342.701 417.043 342.701Z" fill="#E6E6E6"/>
<path d="M347.476 370H173.12C170.207 370 167.837 367.63 167.837 364.716C167.837 361.803 170.207 359.433 173.12 359.433H347.476C350.39 359.433 352.76 361.803 352.76 364.716C352.76 367.63 350.39 370 347.476 370Z" fill="#E6E6E6"/>
<path d="M138.439 158.419L158.196 150.104L166.67 167.477L145.908 175.951L138.439 158.419Z" fill="#FFB6B6"/>
<path opacity="0.1" d="M138.439 158.419L158.196 150.104L166.67 167.477L145.908 175.951L138.439 158.419Z" fill="black"/>
<path d="M141.248 151.799L160.738 174.256C160.738 174.256 147.18 217.051 133.621 220.864C120.062 224.678 95.0629 243.321 95.0629 243.321L63.7082 222.983L78.9618 200.526C78.9618 200.526 115.825 150.104 125.57 150.104C135.316 150.104 141.248 151.799 141.248 151.799V151.799Z" fill="#6933DC"/>
<path d="M114.914 298.192H69.5427L66.6741 294.358L54.9627 278.701L52.2679 275.1C52.2679 275.1 42.0988 256.457 44.2174 239.508C46.3359 222.56 68.369 218.746 68.369 218.746H69.2757L96.2493 242.449L94.6392 264.507L103.181 278.701L114.914 298.192Z" fill="#2F2E41"/>
<path d="M78.8347 298.192H66.6742V280.185L78.8347 298.192Z" fill="#2F2E41"/>
<path d="M413.112 172.237L417.648 200.528L388.992 200.898V176.301L413.112 172.237Z" fill="#FFB6B6"/>
<path opacity="0.1" d="M413.112 172.237L417.648 200.528L388.992 200.898V176.301L413.112 172.237Z" fill="black"/>
<path d="M481.37 270.854L479.857 278.702L476.103 298.192H400.687C401.276 293.824 402.081 287.536 402.941 280.748C403.026 280.07 403.115 279.388 403.199 278.702C405.356 261.639 407.716 242.33 407.716 242.33L417.631 243.533L436.868 245.864L444.706 246.813L465.697 249.36C476.163 250.626 483.361 260.499 481.37 270.854Z" fill="#F2F2F2"/>
<path d="M341.121 270.854L339.609 278.702L335.855 298.192H260.438C261.027 293.824 261.832 287.536 262.692 280.748C262.777 280.07 262.866 279.388 262.951 278.702C265.107 261.639 267.467 242.33 267.467 242.33L277.382 243.533L296.619 245.864L304.457 246.813L325.448 249.36C335.914 250.626 343.113 260.499 341.121 270.854Z" fill="#F2F2F2"/>
<path d="M447.85 298.192H406.945C407.568 297.459 407.92 297.036 407.92 297.036L420.182 295.01L445.448 290.841C445.448 290.841 446.6 293.82 447.85 298.192V298.192Z" fill="#2F2E41"/>
<path d="M391.577 298.192H329.804C330.418 296.972 331.054 295.747 331.706 294.527C332.579 292.896 333.511 291.442 334.499 290.15C335.155 289.29 335.833 288.502 336.532 287.782C338.587 285.667 340.825 284.129 343.181 283.074C351.591 279.29 361.502 281.608 369.942 285.379C373.112 286.794 376.073 288.413 378.671 289.989C383.247 292.769 386.7 295.421 388.17 296.599C388.679 297.002 388.95 297.235 388.95 297.235L391.577 298.192V298.192Z" fill="#2F2E41"/>
<path d="M342.57 298.192H333.808L336.117 295.51L337.422 293.993L337.982 294.447L342.57 298.192Z" fill="#FFB6B6"/>
<path d="M450.842 298.192H375.387L378.671 289.989L383.183 278.702L385.45 273.032L383.577 265.062C383.577 265.062 382.654 264.41 381.247 263.236C376.234 259.084 365.078 248.389 367.641 237.407C370.557 224.907 374.217 200.548 374.993 195.298C375.09 194.641 375.141 194.285 375.141 194.285L386.031 191.616L386.391 191.527L387.56 191.239H416.728L438.181 205.768L438.177 205.92L436.868 245.864L436.308 262.952C436.308 262.952 435.635 265.418 435.796 269.248C435.901 271.876 436.397 275.142 437.77 278.702C439.223 282.485 441.668 286.595 445.681 290.608C448.71 293.637 450.181 296.188 450.842 298.192V298.192Z" fill="#6933DC"/>
<path d="M444.706 246.813C443.99 252.685 443.304 256.859 443.304 256.859L435.796 269.248L430.067 278.701L420.182 295.01L418.733 297.404L417.699 298.192H386.687L388.17 296.599L402.941 280.748L404.852 278.701L407.949 275.375L417.631 243.533L429.042 206.005C429.042 206.005 433.664 204.395 438.177 205.92C440.55 206.721 442.897 208.391 444.511 211.628C447.6 217.805 446.096 235.474 444.706 246.813Z" fill="#6933DC"/>
<path d="M390.153 245.788L381.247 263.236L373.353 278.702L369.942 285.379L368.599 288.015L357.087 298.192H331.02L335.316 292.854L336.914 290.862L343.181 283.074L346.697 278.702L356.244 266.829L358.79 212.756C359.212 203.787 366.045 196.537 374.939 195.307C374.958 195.304 374.976 195.301 374.993 195.298C377.883 194.718 382.476 194.548 386.031 197.984C386.153 198.099 386.272 198.222 386.391 198.349C386.988 198.98 387.552 199.722 388.069 200.59C388.119 200.675 388.17 200.764 388.217 200.853C388.365 201.124 388.509 201.421 388.641 201.738C393.179 212.306 390.153 245.788 390.153 245.788L390.153 245.788Z" fill="#6933DC"/>
<path d="M274.342 166.894L292.131 192.052L261.101 192.978L257.77 169.336L274.342 166.894Z" fill="#A0616A"/>
<path opacity="0.1" d="M274.342 166.894L292.131 192.052L261.101 192.978L257.77 169.336L274.342 166.894Z" fill="black"/>
<path d="M186.614 219.019C184.331 212.434 179.084 208.275 174.894 209.728C170.703 211.181 169.158 217.696 171.442 224.283C172.319 226.927 173.815 229.322 175.807 231.268L185.831 259.045L198.765 254.063L187.511 227.209C187.87 224.447 187.563 221.638 186.614 219.019Z" fill="#A0616A"/>
<path d="M307.028 206.2L307.004 231.839L304.618 241.309L299.712 260.787L296.14 278.702L293.479 292.048L292.53 296.815C291.814 297.294 291.102 297.752 290.39 298.192H228.414C224.893 296.078 222.922 294.434 222.922 294.434C222.922 294.434 223.897 293.519 225.011 292.048C226.893 289.566 229.168 285.498 227.774 281.612C227.482 280.799 227.405 279.807 227.494 278.702C228.062 271.405 235.714 259.067 235.714 259.067L234.13 240.754L233.435 232.729L238.334 193.599L254.304 184.315L257.061 184.048L284.276 182.578L295.525 183.226L296.037 183.366L307.028 206.2L307.028 206.2Z" fill="#CCCCCC"/>
<path d="M308.237 298.192H294.678L294.081 292.048L294.068 291.925L297.907 291.663L307.894 290.98L308.067 294.658L308.203 297.48L308.237 298.192Z" fill="#FFB6B6"/>
<path d="M311.575 212.399L317.27 245.817L312.622 278.701L311.898 283.82L310.618 292.857L310.224 295.637L310.237 295.938L310.334 298.192H294.233L293.64 292.048L293.589 291.497L292.377 278.913L292.356 278.701L289.784 252.016L294.826 232.728L295.199 231.309V231.305L297.393 198.281L295.694 183.273L295.677 183.133C295.711 183.154 295.741 183.175 295.775 183.196C295.864 183.251 295.953 183.307 296.037 183.366C305.935 189.645 311.833 200.662 311.575 212.399Z" fill="#CCCCCC"/>
<path d="M244.102 200.002L237.911 193.598C237.911 193.598 224.656 199.574 223.996 202.889C223.335 206.204 199.932 254.894 199.932 254.894L189.751 227.701L176.498 236.549C176.498 236.549 187.132 278.768 197.077 280.75C207.023 282.732 240.355 230.78 240.355 230.78L244.102 200.002H244.102Z" fill="#CCCCCC"/>
<path d="M397.926 184.828C409.303 184.828 418.527 175.605 418.527 164.227C418.527 152.849 409.303 143.626 397.926 143.626C386.548 143.626 377.324 152.849 377.324 164.227C377.324 175.605 386.548 184.828 397.926 184.828Z" fill="#FFB6B6"/>
<path d="M406.468 172.327C406.468 172.327 404.332 166.443 403.121 163.39C401.91 160.336 402.7 156.374 402.7 156.374C402.7 156.374 386.54 152.807 380.211 156.343C373.883 159.878 373.457 142.095 379.88 137.255C379.88 137.255 381.6 140.245 380.933 141.104L380.265 141.963C380.265 141.963 385.126 131.685 393.333 131.17C393.333 131.17 397.223 134.274 395.757 135.298C394.291 136.323 406.566 129.507 408.701 135.391C408.701 135.391 416.528 136.785 415.003 139.458L415.132 141.303C415.132 141.303 422.225 140.567 421.72 145.594C421.72 145.594 419.333 145.118 417.807 146.137C416.281 147.156 421.438 151.988 421.438 151.988C421.438 151.988 424.537 172.124 413.789 177.921C413.789 177.921 415.532 168.758 411.429 170.256C407.326 171.754 406.468 172.327 406.468 172.327V172.327Z" fill="#2F2E41"/>
<path d="M495.511 303.163H13.3437C6.51894 303.163 0.966614 297.611 0.966614 290.786C0.966614 283.962 6.51894 278.409 13.3437 278.409H495.511C502.336 278.409 507.888 283.962 507.888 290.786C507.888 297.611 502.336 303.163 495.511 303.163Z" fill="#E6E6E6"/>
<path d="M304.206 240.682L303.269 284.428C303.178 288.663 299.719 292.048 295.484 292.048H215.012C210.876 292.048 207.462 288.816 207.236 284.686L204.845 240.941C204.601 236.48 208.152 232.729 212.62 232.729H296.421C300.787 232.729 304.3 236.317 304.206 240.682Z" fill="#3F3D56"/>
<path d="M479.066 240.682L478.129 284.428C478.038 288.663 474.579 292.048 470.344 292.048H389.872C385.736 292.048 382.322 288.816 382.096 284.686L379.705 240.941C379.461 236.48 383.012 232.729 387.48 232.729H471.281C475.647 232.729 479.16 236.317 479.066 240.682Z" fill="#3F3D56"/>
<path d="M174.297 168.979C184.93 168.979 193.55 160.359 193.55 149.726C193.55 139.093 184.93 130.473 174.297 130.473C163.664 130.473 155.044 139.093 155.044 149.726C155.044 160.359 163.664 168.979 174.297 168.979Z" fill="#FFB6B6"/>
<path d="M142.095 200.103L144.214 222.983L158.62 281.032L146.174 285.394L125.147 222.136L122.242 196.713L142.095 200.103Z" fill="#FFB6B6"/>
<path d="M136.364 240.682L135.427 284.428C135.336 288.663 131.877 292.048 127.642 292.048H47.1695C43.034 292.048 39.6198 288.816 39.3941 284.686L37.0026 240.941C36.7587 236.48 40.3103 232.729 44.778 232.729H128.579C132.945 232.729 136.458 236.317 136.364 240.682H136.364Z" fill="#3F3D56"/>
<path d="M160.914 292.344C169.311 292.344 176.119 289.333 176.119 285.618C176.119 281.904 169.311 278.893 160.914 278.893C152.516 278.893 145.708 281.904 145.708 285.618C145.708 289.333 152.516 292.344 160.914 292.344Z" fill="#FFB6B6"/>
<path d="M112.223 203.601L120.909 157.308C120.909 157.308 145.061 153.918 145.908 161.969C146.756 170.019 145.303 209.363 145.303 209.363L112.223 203.601V203.601Z" fill="#6933DC"/>
<path d="M166.525 152.753C166.525 152.753 178.435 148.503 183.459 146.216C188.483 143.929 198.464 159.881 198.686 151.456C198.908 143.031 195.459 139.498 195.459 139.498C195.459 139.498 194.598 121.067 176.029 123.372C176.029 123.372 180.114 114.151 166.707 112.725C153.3 111.299 132.443 143.674 134.311 148.512C136.179 153.35 138.418 157.35 133.119 162.524C127.819 167.697 117.896 196.893 125.446 204.749C132.996 212.606 133.491 216.015 128.318 220.902C123.145 225.79 110.918 236.418 124.139 238.263C137.36 240.108 122.929 238.73 132.785 230.06C142.642 221.39 157.025 221.744 151.654 207.834C146.284 193.924 155.614 173.991 154.447 170.968C153.279 167.944 157.062 148.742 157.062 148.742C157.062 148.742 165.867 147.448 166.525 152.753V152.753Z" fill="#2F2E41"/>
<path d="M264.83 176C276.405 176 285.789 166.617 285.789 155.041C285.789 143.466 276.405 134.083 264.83 134.083C253.255 134.083 243.872 143.466 243.872 155.041C243.872 166.617 253.255 176 264.83 176Z" fill="#A0616A"/>
<path d="M266.503 126.864C265.896 127.218 265.084 126.683 264.89 126.008C264.695 125.333 264.922 124.617 265.146 123.951L266.277 120.602C267.079 118.227 267.93 115.768 269.667 113.96C272.289 111.231 276.455 110.537 280.206 111.04C285.022 111.686 289.775 114.294 292.014 118.607C294.254 122.92 293.3 128.938 289.253 131.628C295.021 138.239 297.031 145.606 296.714 154.373C296.396 163.14 286.843 171.208 280.612 177.384C279.221 176.541 277.956 172.588 278.721 171.152C279.486 169.716 278.39 168.053 279.338 166.73C280.285 165.407 281.078 167.513 280.12 166.198C279.515 165.368 281.875 163.459 280.976 162.963C276.63 160.56 275.185 155.143 272.455 150.995C269.162 145.991 263.527 142.602 257.564 142.04C254.279 141.73 250.809 142.291 248.117 144.198C245.424 146.106 243.681 149.514 244.305 152.753C242.688 151.112 241.883 148.705 242.187 146.421C242.491 144.137 243.896 142.024 245.886 140.862C244.676 136.861 245.712 132.258 248.521 129.162C251.329 126.066 262.72 126.593 266.82 127.408L266.503 126.864Z" fill="#2F2E41"/>
<path d="M267.139 142.162C272.569 142.748 276.49 147.451 279.801 151.795C281.709 154.299 283.708 157.063 283.66 160.211C283.611 163.393 281.484 166.123 280.467 169.138C278.805 174.068 280.425 179.933 284.381 183.31C280.472 184.052 276.245 181.121 275.571 177.199C274.785 172.634 278.245 168.228 277.836 163.614C277.475 159.549 274.271 156.421 271.548 153.381C268.824 150.342 266.267 146.309 267.52 142.425L267.139 142.162Z" fill="#2F2E41"/>
</g>
<path d="M115.826 94.03L117.478 94.457C119.232 94.911 120.285 96.7011 119.831 98.4549L119.392 100.148C118.938 101.903 117.148 102.956 115.394 102.502L113.742 102.075C111.988 101.62 110.935 99.8308 111.389 98.077L111.828 96.3828C112.282 94.629 114.072 93.5748 115.826 94.03ZM130.507 48.6737C134.798 49.7864 137.645 52.165 139.052 55.8119C140.173 58.6924 140.309 61.7707 139.461 65.0455C138.043 70.5211 134.215 75.0876 127.975 78.7427C125.8 80.0157 124.36 81.7812 123.654 84.0393C123.401 84.7869 123.153 85.6247 122.912 86.5572C122.458 88.311 120.667 89.3652 118.914 88.91L117.263 88.483C115.509 88.029 114.455 86.2389 114.909 84.4851C116.203 79.488 118.392 76.095 121.477 74.3037C124.809 72.3639 127.328 70.1409 129.033 67.6301C130.013 66.1676 130.735 64.5471 131.195 62.7675C131.67 60.9341 131.634 59.3886 131.085 58.1308C130.497 56.6835 129.311 55.8493 127.532 55.6305C125.872 55.4106 124.426 56.2249 123.194 58.0758C123.132 58.1659 123.071 58.2572 123.011 58.3508C122.133 59.7197 120.378 60.231 118.898 59.5582L117.449 58.8972C115.653 58.0782 114.974 55.8669 116.012 54.1879C117.042 52.5195 118.337 51.1366 119.898 50.0379C121.591 48.8504 123.683 48.2174 126.174 48.139C127.482 48.0864 128.927 48.2654 130.507 48.6737Z" fill="#6933DC"/>
<path d="M62.0314 147.711L64.3452 147.069C66.8019 146.388 69.3447 147.829 70.0255 150.285L70.682 152.657C71.3636 155.116 69.923 157.658 67.4662 158.339L65.1524 158.981C62.6948 159.66 60.1528 158.221 59.4721 155.764L58.8147 153.391C58.134 150.934 59.5738 148.39 62.0314 147.711ZM48.0101 82.1062C54.0216 80.4435 59.1658 81.3385 63.4456 84.7934C66.8384 87.5152 69.1711 91.1703 70.4415 95.7582C72.5661 103.429 71.1137 111.688 66.0813 120.532C64.3263 123.614 63.8133 126.779 64.5423 130.027C64.759 131.117 65.0461 132.312 65.4085 133.618C66.0893 136.075 64.6494 138.619 62.1918 139.299L59.8795 139.94C57.4227 140.621 54.8785 139.181 54.1977 136.724C52.2587 129.724 52.5392 124.048 55.0388 119.695C57.7348 114.986 59.2405 110.505 59.5514 106.245C59.7172 103.773 59.4568 101.29 58.765 98.7981C58.054 96.2295 56.9223 94.3715 55.3686 93.2248C53.6331 91.8751 51.6017 91.6923 49.279 92.6778C47.101 93.5779 45.9116 95.5878 45.7125 98.7104C45.7003 98.8638 45.6904 99.0178 45.6835 99.1739C45.5773 101.46 43.7982 103.317 41.5212 103.539L39.2894 103.753C36.5245 104.019 34.1416 101.801 34.225 99.0252C34.3059 96.2675 34.9112 93.6708 36.0403 91.2337C37.268 88.5953 39.3721 86.352 42.3525 84.5038C43.9096 83.5193 45.7965 82.7208 48.0101 82.1062Z" fill="#DCDCF3"/>
<path d="M455.466 145.878L459.192 146.841C463.147 147.864 465.521 151.901 464.497 155.856L463.508 159.674C462.484 163.631 458.448 166.006 454.493 164.982L450.767 164.019C446.812 162.993 444.438 158.959 445.461 155.004L446.451 151.184C447.475 147.229 451.511 144.851 455.466 145.878ZM488.573 43.5976C498.248 46.1067 504.67 51.4706 507.841 59.6945C510.369 66.1902 510.677 73.1318 508.764 80.5167C505.567 92.8644 496.934 103.162 482.863 111.404C477.959 114.275 474.711 118.256 473.12 123.348C472.547 125.034 471.988 126.923 471.444 129.026C470.421 132.981 466.384 135.358 462.429 134.332L458.706 133.369C454.751 132.345 452.374 128.309 453.398 124.354C456.316 113.085 461.252 105.434 468.21 101.394C475.724 97.0199 481.404 92.0069 485.248 86.3449C487.459 83.0469 489.087 79.3927 490.124 75.3797C491.195 71.2454 491.114 67.7601 489.876 64.9238C488.549 61.6601 485.876 59.7789 481.863 59.2855C478.12 58.7895 474.858 60.6258 472.08 64.7998C471.94 65.0029 471.803 65.2087 471.669 65.4198C469.69 68.5067 465.732 69.6597 462.395 68.1426L459.126 66.6519C455.076 64.8051 453.545 59.8185 455.886 56.0324C458.208 52.27 461.128 49.1515 464.648 46.674C468.466 43.996 473.183 42.5686 478.8 42.3919C481.75 42.2732 485.008 42.6768 488.573 43.5976Z" fill="#DCDCF3"/>
<path d="M399.513 50.5949L401.22 50.5798C403.031 50.5644 404.512 52.0209 404.527 53.8325L404.542 55.5814C404.557 57.394 403.101 58.8745 401.289 58.8899L399.583 58.905C397.771 58.9193 396.291 57.4639 396.275 55.6523L396.261 53.9023C396.245 52.0907 397.702 50.6092 399.513 50.5949ZM401.955 2.98434C406.388 2.94866 409.754 4.50916 412.056 7.6678C413.884 10.1601 414.813 13.098 414.842 16.4808C414.889 22.1369 412.373 27.5386 407.292 32.6841C405.521 34.4766 404.586 36.5547 404.489 38.9185C404.438 39.7064 404.415 40.5797 404.423 41.5428C404.439 43.3544 402.983 44.836 401.171 44.8503L399.466 44.865C397.654 44.8805 396.172 43.4242 396.157 41.6126C396.114 36.4509 397.35 32.607 399.866 30.0782C402.583 27.342 404.441 24.5428 405.438 21.6763C406.006 20.0099 406.284 18.2578 406.268 16.4199C406.252 14.526 405.817 13.0425 404.961 11.9696C404.018 10.724 402.658 10.2249 400.882 10.4742C399.221 10.6914 398.035 11.8523 397.324 13.959C397.288 14.0621 397.253 14.166 397.219 14.2718C396.726 15.8212 395.163 16.7693 393.559 16.5025L391.988 16.2392C390.041 15.9129 388.813 13.9526 389.381 12.0623C389.944 10.1842 390.837 8.51319 392.06 7.04803C393.388 5.46277 395.245 4.30993 397.631 3.58951C398.881 3.2001 400.323 2.99903 401.955 2.98434Z" fill="#6933DC"/>
<defs>
<clipPath id="clip0_108_281">
<rect width="506.921" height="259.111" fill="white" transform="translate(0.966614 110.889)"/>
</clipPath>
</defs>
</svg>
