<svg width="523" height="547" viewBox="0 0 523 547" fill="none" xmlns="http://www.w3.org/2000/svg">
<path d="M109.924 132.809L111.906 133.321C114.01 133.866 115.274 136.013 114.729 138.118L114.203 140.149C113.658 142.254 111.51 143.517 109.406 142.973L107.424 142.46C105.32 141.914 104.057 139.768 104.602 137.664L105.128 135.632C105.673 133.528 107.82 132.263 109.924 132.809ZM127.537 78.3945C132.685 79.7293 136.101 82.583 137.788 86.9582C139.133 90.414 139.297 94.1071 138.28 98.0359C136.578 104.605 131.986 110.084 124.5 114.469C121.89 115.996 120.163 118.114 119.316 120.823C119.012 121.72 118.714 122.725 118.425 123.844C117.88 125.948 115.733 127.212 113.629 126.666L111.648 126.154C109.544 125.609 108.279 123.462 108.824 121.358C110.376 115.363 113.002 111.292 116.704 109.143C120.702 106.816 123.724 104.149 125.769 101.137C126.945 99.382 127.811 97.438 128.363 95.303C128.933 93.1034 128.889 91.2492 128.231 89.7403C127.525 88.0039 126.103 87.0031 123.968 86.7406C121.976 86.4767 120.241 87.4537 118.763 89.6743C118.689 89.7824 118.616 89.8919 118.544 90.0042C117.491 91.6464 115.386 92.2598 113.61 91.4527L111.871 90.6597C109.716 89.6771 108.902 87.0242 110.147 85.0099C111.383 83.0083 112.936 81.3492 114.809 80.0311C116.84 78.6064 119.35 77.847 122.338 77.753C123.908 77.6898 125.641 77.9046 127.537 78.3945Z" fill="#6933DC"/>
<path d="M45.3861 197.211L48.162 196.441C51.1094 195.625 54.16 197.353 54.9768 200.3L55.7644 203.146C56.5821 206.095 54.8537 209.146 51.9063 209.962L49.1304 210.733C46.182 211.548 43.1324 209.821 42.3157 206.874L41.5271 204.026C40.7103 201.079 42.4377 198.026 45.3861 197.211ZM28.5647 118.505C35.7767 116.51 41.9482 117.584 47.0828 121.729C51.1531 124.994 53.9517 129.379 55.4759 134.883C58.0247 144.086 56.2822 153.994 50.2449 164.605C48.1394 168.302 47.5239 172.099 48.3985 175.996C48.6584 177.304 49.0029 178.738 49.4377 180.305C50.2544 183.252 48.527 186.304 45.5786 187.119L42.8044 187.889C39.857 188.705 36.8047 186.978 35.9879 184.031C33.6617 175.632 33.9982 168.824 36.997 163.6C40.2314 157.951 42.0379 152.575 42.4108 147.465C42.6098 144.499 42.2973 141.52 41.4674 138.53C40.6143 135.449 39.2567 133.22 37.3927 131.844C35.3105 130.225 32.8735 130.005 30.087 131.188C27.4739 132.268 26.047 134.679 25.8081 138.425C25.7935 138.609 25.7816 138.794 25.7734 138.981C25.6459 141.723 23.5116 143.952 20.7798 144.218L18.1023 144.475C14.7852 144.794 11.9264 142.134 12.0265 138.803C12.1235 135.494 12.8497 132.379 14.2043 129.455C15.6772 126.29 18.2014 123.599 21.7772 121.381C23.6452 120.2 25.9089 119.242 28.5647 118.505Z" fill="#DCDCF3"/>
<path d="M457.395 175.012L461.864 176.168C466.609 177.396 469.458 182.239 468.23 186.984L467.043 191.564C465.814 196.312 460.972 199.161 456.227 197.932L451.757 196.777C447.013 195.546 444.164 190.706 445.392 185.961L446.579 181.378C447.807 176.633 452.65 173.781 457.395 175.012ZM497.113 52.3057C508.72 55.3159 516.425 61.751 520.229 71.6173C523.262 79.4103 523.632 87.7383 521.337 96.598C517.501 111.412 507.144 123.766 490.263 133.654C484.379 137.098 480.483 141.875 478.574 147.984C477.887 150.006 477.216 152.273 476.564 154.795C475.336 159.54 470.493 162.392 465.748 161.161L461.282 160.006C456.537 158.777 453.685 153.934 454.913 149.19C458.414 135.671 464.336 126.491 472.683 121.645C481.698 116.397 488.513 110.383 493.125 103.59C495.777 99.6335 497.73 95.2495 498.974 90.4351C500.259 85.4751 500.161 81.2937 498.677 77.891C497.085 73.9755 493.878 71.7186 489.064 71.1267C484.572 70.5316 480.66 72.7347 477.327 77.7422C477.159 77.9859 476.994 78.2328 476.833 78.486C474.459 82.1895 469.711 83.5727 465.707 81.7526L461.785 79.9642C456.926 77.7485 455.09 71.7661 457.898 67.2238C460.684 62.7101 464.188 58.9687 468.41 55.9965C472.99 52.7837 478.65 51.0713 485.389 50.8592C488.928 50.7167 492.837 51.201 497.113 52.3057Z" fill="#DCDCF3"/>
<path d="M390.268 60.6993L392.315 60.6812C394.488 60.6627 396.264 62.4102 396.283 64.5835L396.3 66.6817C396.319 68.8564 394.571 70.6325 392.398 70.651L390.351 70.6691C388.177 70.6862 386.401 68.9401 386.383 66.7668L386.365 64.6673C386.347 62.4939 388.094 60.7165 390.268 60.6993ZM393.197 3.58042C398.514 3.53761 402.553 5.40976 405.315 9.19922C407.508 12.1892 408.623 15.7139 408.657 19.7723C408.714 26.5579 405.695 33.0385 399.6 39.2115C397.474 41.3621 396.354 43.8552 396.237 46.6911C396.175 47.6363 396.148 48.6841 396.158 49.8395C396.177 52.0129 394.429 53.7903 392.256 53.8075L390.21 53.8252C388.037 53.8437 386.259 52.0966 386.241 49.9233C386.189 43.7307 387.672 39.119 390.691 36.0852C393.95 32.8026 396.179 29.4443 397.375 26.0054C398.057 24.0062 398.39 21.9042 398.371 19.6992C398.352 17.4271 397.83 15.6473 396.803 14.3602C395.672 12.8657 394.039 12.267 391.909 12.5661C389.917 12.8267 388.494 14.2194 387.641 16.7469C387.597 16.8705 387.555 16.9952 387.515 17.1222C386.923 18.981 385.048 20.1184 383.124 19.7984L381.239 19.4824C378.904 19.091 377.431 16.7392 378.112 14.4713C378.787 12.2182 379.858 10.2134 381.326 8.45568C382.919 6.55382 385.147 5.17074 388.009 4.30644C389.508 3.83927 391.239 3.59804 393.197 3.58042Z" fill="#6933DC"/>
<path d="M167.563 448.042L163.226 469.49L243.889 496.431L250.292 464.775L167.563 448.042Z" fill="#FFB6B6"/>
<path d="M175.673 443.988L167.13 486.227L167.129 486.229C165.685 493.368 161.463 499.64 155.394 503.667C149.325 507.694 141.905 509.145 134.766 507.701L133.891 507.524L147.88 438.367L175.673 443.988Z" fill="#2F2E41"/>
<path d="M258.972 152.604C289.221 152.604 313.743 128.083 313.743 97.8336C313.743 67.5846 289.221 43.063 258.972 43.063C228.723 43.063 204.201 67.5846 204.201 97.8336C204.201 128.083 228.723 152.604 258.972 152.604Z" fill="#FEB8B8"/>
<path d="M310.128 50.5821C301.94 37.285 289.122 27.4868 274.142 23.0737L267.418 27.9805V21.6092C263.821 21.0586 260.179 20.8465 256.542 20.9757L250.741 26.2245V21.4118C242.152 22.4791 233.877 25.3145 226.439 29.7391C219 34.1638 212.559 40.0817 207.521 47.1197C194.923 65.2812 192.797 90.5479 205.188 108.855C208.589 98.4017 212.717 88.5934 216.119 78.141C218.793 78.5055 221.502 78.5186 224.179 78.1801L228.317 68.5239L229.473 77.7715C242.3 76.6544 261.326 74.2004 273.485 71.9524L272.303 64.8578L279.377 70.7529C283.103 69.8955 285.315 69.1173 285.132 68.5229C294.176 83.1027 305.244 92.4147 314.286 106.995C317.721 86.4362 321.675 69.3422 310.128 50.5821Z" fill="#2F2E41"/>
<path d="M276.792 456.241C354.679 456.241 417.819 438.58 417.819 416.794C417.819 395.007 354.679 377.346 276.792 377.346C198.906 377.346 135.766 395.007 135.766 416.794C135.766 438.58 198.906 456.241 276.792 456.241Z" fill="#2F2E41"/>
<path d="M376.768 238.678C374.885 227.347 372.942 215.799 367.676 205.592C364.215 198.906 358.721 192.534 351.315 191.212C349.856 191.082 348.422 190.75 347.054 190.226C344.884 189.181 315.722 172.533 311.087 169.634C307.108 167.145 300.825 162.536 297.657 162.536C294.471 162.466 282.251 165.31 234.557 161.582C226.534 164.802 218.765 168.622 211.316 173.008C211.162 172.907 161.813 199.407 159.959 199.337C156.448 199.19 153.185 201.438 151.172 204.269C149.16 207.099 148.216 210.604 147.227 213.992C158.006 237.996 167.868 262.031 178.647 286.034C179.152 286.938 179.42 287.955 179.427 288.991C179.21 290.065 178.752 291.076 178.086 291.947C172.8 300.439 172.968 311.119 173.545 321.1C174.123 331.08 174.838 341.622 170.378 350.568C169.165 353.024 167.587 355.272 166.433 357.728C163.731 363.29 162.754 381.081 164.333 387.058L362.067 392.722C357.816 381.036 376.768 238.678 376.768 238.678Z" fill="#6933DC"/>
<path d="M130.135 287.098C129.741 289.952 129.701 292.844 130.017 295.708L132.851 336.409C133.117 340.245 133.379 344.072 133.739 347.898C134.419 355.324 135.435 362.691 136.696 370.048C136.724 371.092 137.166 372.083 137.924 372.802C138.682 373.521 139.694 373.91 140.739 373.884C153.214 376.524 166.103 376.418 178.835 375.699C198.264 374.615 247.97 372.563 251.006 368.618C254.043 364.673 252.273 358.292 248.314 355.103C244.354 351.913 178.76 344.136 178.76 344.136C179.401 339.057 181.335 334.274 183.169 329.452C186.463 320.899 189.54 312.065 189.599 302.903C189.658 293.741 186.207 284.108 178.701 278.859C172.528 274.55 164.579 273.751 157.055 273.928C151.582 274.085 142.124 272.774 137.124 274.914C133.168 276.657 130.874 283.224 130.135 287.098Z" fill="#FBBEBE"/>
<path d="M377.119 379.102C380.403 377.85 384.022 378.303 387.543 378.777C398.875 380.325 410.373 381.913 420.876 386.44C425.807 388.552 430.502 391.371 433.836 395.521C436.792 399.258 438.519 403.835 440.157 408.341L443.945 418.717C445.555 422.614 446.665 426.7 447.249 430.876C448.432 443.293 439.941 454.998 429.26 461.449C418.58 467.899 406.006 470.196 393.757 472.602C381.507 475.009 369.21 477.671 357.011 480.492C351.321 481.969 345.548 483.105 339.723 483.894C326.666 485.372 313.017 483.194 300.61 487.514C295.679 489.24 290.837 491.804 285.722 492.997C282.322 493.712 278.885 494.236 275.426 494.565L251.945 497.247C247.17 497.886 242.363 498.254 237.547 498.352C227.291 498.352 217.202 495.923 207.242 493.494C206.184 493.308 205.177 492.902 204.286 492.301C202.708 491.058 202.363 488.859 202.136 486.868C201.13 478.051 200.25 469.225 199.496 460.389C199.26 457.519 199.082 454.412 200.65 451.996C202.623 449.04 206.469 448.111 209.98 447.538C224.868 445.103 239.949 444.056 255.03 444.412C260.76 438.683 270.208 438.653 277.713 435.536C280.474 434.268 283.146 432.815 285.712 431.187C299.136 423.354 314.139 418.614 329.627 417.311C332.66 417.219 335.673 416.789 338.611 416.029C344.419 414.225 349.716 409.313 355.682 410.516C356.421 408.475 356.934 405.743 358.638 404.343C359.483 403.623 360.532 403.14 361.311 402.37C362.958 400.704 363.106 398.08 362.859 395.753C362.612 393.426 362.06 391.039 362.661 388.77C362.912 387.911 363.28 387.092 363.756 386.334C366.704 381.232 371.172 378.609 377.119 379.102Z" fill="#2F2E41"/>
<path d="M146.657 214.723C145.696 215.729 144.952 216.92 144.468 218.224C136.496 236.19 131.788 255.432 130.563 275.049C130.584 276.005 130.364 276.952 129.922 277.8C129.486 278.365 129.001 278.89 128.472 279.368C128.011 279.915 127.662 280.547 127.446 281.228C127.229 281.909 127.148 282.627 127.209 283.339C127.269 284.051 127.47 284.745 127.798 285.38C128.126 286.015 128.577 286.579 129.123 287.04C129.213 287.116 129.305 287.188 129.399 287.258C131.026 284.196 134.922 283.195 138.384 282.929C154.962 281.617 171.155 289.33 187.782 288.748C186.609 284.694 184.922 280.799 183.965 276.697C179.734 258.482 190.287 238.65 183.817 221.105C182.525 217.594 180.366 214.142 176.963 212.604C175.555 212.036 174.08 211.645 172.575 211.442C168.374 210.683 160.01 207.438 155.948 208.74C154.448 209.224 153.857 210.633 152.614 211.486C150.726 212.691 148.222 213.135 146.657 214.723Z" fill="#6933DC"/>
<path d="M376.886 274.914C371.887 272.774 362.429 274.085 356.955 273.928C349.432 273.751 341.483 274.55 335.309 278.859C327.804 284.108 324.352 293.741 324.411 302.903C324.47 312.065 327.547 320.899 330.842 329.452C332.676 334.274 334.609 339.057 335.25 344.136C335.25 344.136 269.657 351.913 265.697 355.103C261.737 358.292 259.968 364.673 263.004 368.618C266.041 372.563 360.797 376.524 373.272 373.884C374.317 373.91 375.329 373.521 376.087 372.802C376.845 372.083 377.287 371.092 377.315 370.048C378.576 362.691 379.592 355.324 380.272 347.898C380.632 344.072 380.894 340.245 381.16 336.409L383.994 295.708C384.31 292.844 384.27 289.952 383.875 287.098C383.136 283.224 380.843 276.657 376.886 274.914Z" fill="#FBBEBE"/>
<path d="M361.396 211.486C360.154 210.633 359.562 209.224 358.063 208.74C354.001 207.438 345.637 210.683 341.436 211.442C339.93 211.645 338.456 212.036 337.047 212.604C333.645 214.142 331.486 217.594 330.193 221.105C323.724 238.65 334.277 258.482 330.046 276.697C329.089 280.799 327.402 284.694 326.229 288.748C342.856 289.33 359.049 281.617 375.627 282.929C379.089 283.195 382.984 284.196 384.611 287.258C384.706 287.188 384.798 287.116 384.887 287.04C385.434 286.579 385.884 286.015 386.213 285.38C386.541 284.745 386.741 284.051 386.802 283.339C386.862 282.627 386.782 281.909 386.565 281.228C386.348 280.547 386 279.915 385.539 279.368C385.01 278.89 384.525 278.365 384.089 277.8C383.647 276.952 383.426 276.005 383.448 275.049C382.223 255.432 377.514 236.19 369.543 218.224C369.059 216.92 368.314 215.729 367.354 214.723C365.789 213.135 363.284 212.691 361.396 211.486Z" fill="#6933DC"/>
<path d="M389.126 478.66L386.244 500.351L301.203 499.554L305.459 467.539L389.126 478.66Z" fill="#FFB6B6"/>
<path d="M410.888 475.922L401.592 545.865L400.708 545.748C393.488 544.788 386.945 540.999 382.518 535.216C378.091 529.432 376.142 522.127 377.101 514.907L377.102 514.905L382.78 472.186L410.888 475.922Z" fill="#2F2E41"/>
<path d="M189.061 390.079C189.061 391.066 187.513 390.079 187.371 389.024C186.287 381.045 179.955 374.467 172.578 371.272C165.202 368.077 156.799 367.909 148.811 368.668C136.73 369.811 123.169 374.437 118.752 385.729C117.706 388.369 107.914 411.873 108.869 417.159C111.444 431.262 121.088 443.323 132.775 451.676C144.462 460.03 158.117 465.02 171.738 469.521C207.751 481.398 244.699 490.223 282.192 495.902C288.267 496.819 294.402 497.667 300.22 499.62C305.426 501.365 310.298 503.978 315.388 506.03C327.222 510.782 339.954 512.479 352.567 514.147C354.717 514.423 357.182 514.62 358.77 513.16C360.822 511.26 360.143 507.943 359.559 505.212C357.419 494.825 359.215 484.013 364.599 474.877C366.711 471.327 369.456 467.687 369.057 463.579C368.584 458.786 363.81 455.393 359.057 454.623C354.303 453.854 349.471 454.989 344.696 455.61C343.06 455.985 341.346 455.816 339.815 455.126C339.106 454.647 338.462 454.077 337.902 453.43C334.613 450.258 330.405 448.209 325.88 447.577C321.355 446.944 316.746 447.761 312.714 449.91C310.949 450.896 308.279 448.697 306.442 447.869L285.702 438.48C261.876 427.701 237.931 416.872 212.724 410.048C210.712 409.652 208.801 408.857 207.102 407.71C205.85 406.724 204.952 405.387 203.798 404.288C201.283 401.911 197.779 400.964 194.765 399.277C191.75 397.591 188.37 393.461 189.061 390.079Z" fill="#2F2E41"/>
<path d="M242.751 375.828C250.915 375.828 257.533 369.21 257.533 361.045C257.533 352.881 250.915 346.263 242.751 346.263C234.586 346.263 227.968 352.881 227.968 361.045C227.968 369.21 234.586 375.828 242.751 375.828Z" fill="#FBBEBE"/>
<path d="M275.484 375.828C283.648 375.828 290.266 369.21 290.266 361.045C290.266 352.881 283.648 346.263 275.484 346.263C267.319 346.263 260.701 352.881 260.701 361.045C260.701 369.21 267.319 375.828 275.484 375.828Z" fill="#FBBEBE"/>
<path d="M366.733 394.356H163.642C161.271 394.353 158.998 393.41 157.321 391.734C155.645 390.057 154.701 387.784 154.699 385.413V262.203C154.701 259.832 155.645 257.559 157.321 255.883C158.998 254.206 161.271 253.263 163.642 253.26H366.733C369.104 253.263 371.377 254.206 373.054 255.883C374.731 257.559 375.674 259.832 375.677 262.203V385.413C375.674 387.784 374.731 390.057 373.054 391.734C371.377 393.41 369.104 394.353 366.733 394.356Z" fill="#3F3D56"/>
<path d="M264.695 329.725C267.963 329.725 270.612 327.076 270.612 323.808C270.612 320.54 267.963 317.891 264.695 317.891C261.427 317.891 258.778 320.54 258.778 323.808C258.778 327.076 261.427 329.725 264.695 329.725Z" fill="white"/>
</svg>
