<svg width="588" height="389" viewBox="0 0 588 389" fill="none" xmlns="http://www.w3.org/2000/svg">
<g clip-path="url(#clip0_102_289)">
<path d="M290.547 69.6975C300.384 69.6975 308.359 61.723 308.359 51.8861C308.359 42.0491 300.384 34.0747 290.547 34.0747C280.711 34.0747 272.736 42.0491 272.736 51.8861C272.736 61.723 280.711 69.6975 290.547 69.6975Z" fill="#FD6584"/>
<path d="M330.411 43.452C329.908 41.805 328.935 40.3408 327.611 39.2397C326.287 38.1386 324.67 37.4487 322.959 37.2549C322.919 37.2516 322.879 37.2516 322.839 37.2549C322.791 37.2399 322.742 37.2288 322.693 37.2216C316.729 36.4478 310.098 38.3289 305.635 42.4247C303.979 43.9212 302.654 45.7482 301.746 47.788C300.919 46.658 299.829 45.7467 298.57 45.133C297.311 44.5193 295.922 44.2217 294.522 44.2659C292.717 44.3852 290.992 45.0584 289.584 46.1937C288.175 47.329 287.151 48.8711 286.651 50.6097C286.596 50.8222 286.611 51.0467 286.694 51.2498C286.777 51.4529 286.923 51.6239 287.111 51.7371C287.647 52.196 288.285 52.5206 288.972 52.6843C290.446 52.9979 291.934 53.2847 293.421 53.5449C296.33 54.0518 299.254 54.4632 302.193 54.779C304.135 54.9857 306.08 55.1503 308.03 55.2726C312.059 55.5261 316.109 55.5861 320.144 55.4594C322.146 55.3927 324.067 55.326 325.895 54.4454C327.226 53.7904 328.365 52.7994 329.197 51.5703C329.98 50.3881 330.494 49.0485 330.704 47.6459C330.914 46.2433 330.814 44.8117 330.411 43.452Z" fill="#DCDCF3"/>
<path d="M293.768 69.4013C293.734 68.6549 293.609 67.9156 293.395 67.1999C292.89 65.553 291.915 64.0893 290.591 62.9884C289.266 61.8875 287.648 61.1974 285.937 61.0028C285.899 60.9995 285.861 60.9995 285.823 61.0028C285.773 60.9885 285.722 60.9774 285.67 60.9695C282.369 60.5651 279.02 60.9094 275.871 61.9767C271.028 63.5977 266.778 66.8664 264.731 71.5359C263.902 70.4052 262.811 69.4935 261.551 68.8797C260.291 68.266 258.9 67.9688 257.499 68.0138C255.694 68.1331 253.97 68.8063 252.561 69.9416C251.152 71.0769 250.128 72.619 249.628 74.3576C249.576 74.5701 249.593 74.7935 249.675 74.996C249.758 75.1984 249.902 75.3696 250.088 75.485C250.626 75.9426 251.263 76.2671 251.949 76.4322C253.43 76.7458 254.911 77.0326 256.405 77.2928C259.314 77.7997 262.236 78.2111 265.171 78.5269C271.134 79.167 277.134 79.3943 283.128 79.2072C285.123 79.1405 287.051 79.0738 288.879 78.1933C290.209 77.5381 291.344 76.547 292.174 75.3182C293.343 73.5757 293.904 71.4954 293.768 69.4013Z" fill="#DCDCF3"/>
<path d="M525.743 285.526C525.999 297.67 524.323 309.778 520.778 321.396C520.654 321.818 520.505 322.24 520.356 322.662H447.275C448.319 317.518 449.978 312.517 452.215 307.768C458.297 294.86 468.226 283.813 478.031 272.841C491.536 257.723 504.717 242.73 506.802 223.069C512.155 231.229 516.427 240.049 519.512 249.308C515.735 250.707 512.269 252.832 509.31 255.563C508.49 256.333 507.621 257.45 508.044 258.517C508.441 259.411 509.533 259.709 510.501 259.908C512.834 260.354 515.168 260.801 517.501 261.223C519.338 261.596 521.2 261.943 523.062 262.291C524.698 269.932 525.596 277.713 525.743 285.526Z" fill="#DCDCF3"/>
<path d="M587.132 277.483C575.415 284.607 567.968 295.629 561.886 307.966C556.594 309.173 551.708 311.74 547.712 315.414C546.868 316.183 545.999 317.3 546.446 318.368C546.818 319.261 547.935 319.559 548.903 319.758C551.212 320.205 553.57 320.651 555.879 321.073C555.656 321.595 555.432 322.141 555.209 322.662H477.758C481.274 317.92 485.168 313.471 489.401 309.357C490.319 308.438 491.263 307.569 492.231 306.676C502.104 297.753 513.44 290.598 525.743 285.526C545.124 277.423 566.318 274.647 587.132 277.483Z" fill="#DCDCF3"/>
<path d="M490.667 322.662H421.706C421.33 317.14 421.363 311.597 421.806 306.08C424.561 271.997 443.104 239.527 471.081 219.867C467.506 232.601 469.343 245.262 473.067 257.971C472.545 258.145 472.024 258.294 471.552 258.493C467.776 259.892 464.31 262.017 461.35 264.748C460.531 265.518 459.662 266.635 460.084 267.702C460.456 268.596 461.573 268.894 462.541 269.092C464.875 269.539 467.208 269.986 469.517 270.408C471.379 270.78 473.24 271.128 475.102 271.5C475.971 271.649 476.84 271.823 477.709 271.997C477.833 272.295 477.907 272.568 478.031 272.841C482.4 284.88 487.167 297.019 489.401 309.357C489.954 312.453 490.335 315.577 490.543 318.715C490.617 320.031 490.667 321.347 490.667 322.662Z" fill="#F2F2F2"/>
<path d="M114.825 285.526C115.081 297.67 113.405 309.778 109.86 321.396C109.736 321.818 109.587 322.24 109.438 322.662H36.3569C37.4016 317.518 39.0602 312.517 41.297 307.768C47.3787 294.86 57.3083 283.813 67.1137 272.841C80.6179 257.723 93.7993 242.73 95.8846 223.069C101.237 231.229 105.51 240.049 108.594 249.308C104.818 250.707 101.352 252.832 98.3918 255.563C97.5726 256.333 96.7037 257.45 97.1258 258.517C97.5229 259.411 98.6152 259.709 99.5833 259.908C101.917 260.354 104.25 260.801 106.584 261.223C108.421 261.596 110.282 261.943 112.144 262.291C113.781 269.932 114.678 277.713 114.825 285.526Z" fill="#DCDCF3"/>
<path d="M176.214 277.483C164.498 284.607 157.05 295.629 150.969 307.966C145.676 309.173 140.79 311.74 136.794 315.414C135.95 316.183 135.081 317.3 135.528 318.368C135.901 319.261 137.018 319.559 137.986 319.758C140.294 320.205 142.653 320.651 144.961 321.073C144.738 321.595 144.514 322.141 144.291 322.662H66.8407C70.3566 317.92 74.25 313.471 78.4831 309.357C79.4016 308.438 80.3449 307.569 81.313 306.676C91.186 297.753 102.523 290.598 114.825 285.526C134.206 277.423 155.4 274.647 176.214 277.483Z" fill="#F2F2F2"/>
<path d="M79.7491 322.662H10.7884C10.4119 317.14 10.4451 311.597 10.8878 306.08C13.6432 271.997 32.1866 239.527 60.1631 219.867C56.5884 232.601 58.4253 245.262 62.1489 257.971C61.6277 258.145 61.1064 258.294 60.6347 258.493C56.8581 259.892 53.392 262.017 50.4322 264.748C49.6129 265.518 48.7442 266.635 49.1661 267.702C49.5384 268.596 50.6555 268.894 51.6236 269.092C53.9571 269.539 56.2905 269.986 58.5991 270.408C60.4609 270.78 62.3227 271.128 64.1845 271.5C65.0533 271.649 65.9222 271.823 66.791 271.997C66.915 272.295 66.9896 272.568 67.1137 272.841C71.4827 284.88 76.2488 297.019 78.483 309.357C79.036 312.453 79.4173 315.577 79.625 318.715C79.6994 320.031 79.7491 321.347 79.7491 322.662Z" fill="#DCDCF3"/>
<path d="M336.479 293.71L398.097 299.18L398.757 299.24V36.3192C398.537 36.1658 398.317 36.0124 398.097 35.8589C385.255 26.8766 371.363 19.4974 356.731 13.8855L353.583 57.312L353.296 61.2878L350.181 104.354L349.22 117.602L336.592 292.176L336.479 293.71Z" fill="#DCDCF3"/>
<path d="M184.099 31.4228C183.659 31.7029 183.219 31.9831 182.778 32.2766V299.24L184.099 299.12L245.05 293.71L244.936 292.175L232.309 117.602L231.348 104.354L228.233 61.2877L227.946 57.3119L224.644 11.7708C210.404 16.7067 196.795 23.3028 184.099 31.4228Z" fill="#DCDCF3"/>
<path d="M182.778 32.2767C181.891 32.8504 181.004 33.4374 180.13 34.0311V302.882C180.13 309.599 184.113 315.23 189.436 316.664C190.306 316.899 191.203 317.018 192.104 317.017H390.092C390.991 317.019 391.886 316.9 392.753 316.664C394.732 316.115 396.525 315.041 397.943 313.555C400.647 310.665 402.125 306.839 402.066 302.882V38.7073C400.972 37.9001 399.871 37.0997 398.757 36.3192C398.537 36.1657 398.317 36.0123 398.097 35.8589V302.882C398.098 303.747 397.995 304.61 397.79 305.45C396.849 309.419 393.747 312.328 390.092 312.328H192.104C187.688 312.328 184.099 308.092 184.099 302.882V31.4229C183.659 31.703 183.219 31.9832 182.778 32.2767Z" fill="#DCDCF3"/>
<path d="M400.081 57.3145H182.113V61.2896H400.081V57.3145Z" fill="#DCDCF3"/>
<path d="M333.324 6.60758C332.003 6.28071 330.682 5.97385 329.348 5.68701V113.626H333.324V6.60758Z" fill="#DCDCF3"/>
<path d="M252.848 4.34619C251.52 4.59301 250.193 4.8465 248.872 5.12V113.626H252.848V4.34619Z" fill="#DCDCF3"/>
<path d="M139.378 310.06C139.378 312.341 139.815 314.601 140.666 316.717C140.993 317.538 141.383 318.332 141.833 319.092C142.415 320.083 143.089 321.017 143.848 321.88C145.524 323.79 147.588 325.32 149.902 326.368C152.217 327.416 154.729 327.958 157.269 327.957H418.302C423.047 327.957 427.598 326.072 430.953 322.717C434.308 319.362 436.193 314.811 436.193 310.066C436.193 305.321 434.308 300.771 430.953 297.415C427.598 294.06 423.047 292.175 418.302 292.175H157.269C152.527 292.18 147.98 294.065 144.626 297.418C141.272 300.771 139.385 305.317 139.378 310.06Z" fill="#DCDCF3"/>
<path d="M182.113 117.604L398.756 117.604V104.353L182.113 104.353V117.604Z" fill="#DCDCF3"/>
<path d="M299.71 107.666H281.159C281.159 105.733 281.927 103.879 283.294 102.513C284.66 101.146 286.514 100.378 288.447 100.378H292.422C293.379 100.378 294.327 100.567 295.211 100.933C296.095 101.299 296.898 101.836 297.575 102.513C298.252 103.189 298.789 103.993 299.155 104.877C299.521 105.761 299.71 106.709 299.71 107.666H299.71Z" fill="#DCDCF3"/>
<path d="M0 320.279C5.79504 327.146 12.063 333.599 18.7581 339.591H556.807C563.502 333.599 569.77 327.146 575.565 320.279H0Z" fill="#3F3D56"/>
<path d="M264.622 255.7V324.115H312.551V255.7C312.552 255.208 312.395 254.728 312.103 254.332C311.811 253.936 311.4 253.644 310.93 253.498C310.708 253.425 310.476 253.389 310.243 253.392H266.936C266.633 253.391 266.332 253.45 266.051 253.566C265.771 253.682 265.516 253.852 265.301 254.066C265.086 254.28 264.915 254.535 264.799 254.815C264.682 255.096 264.622 255.396 264.622 255.7ZM283.326 279.208C283.339 277.859 283.884 276.57 284.842 275.621C285.8 274.671 287.094 274.139 288.443 274.139C289.792 274.139 291.086 274.671 292.044 275.621C293.002 276.57 293.547 277.859 293.559 279.208V287.146C293.553 288.498 293.01 289.793 292.052 290.747C291.093 291.701 289.795 292.236 288.443 292.236C287.091 292.236 285.793 291.701 284.834 290.747C283.876 289.793 283.333 288.498 283.326 287.146V279.208Z" fill="#2F2E41"/>
<path d="M264.475 321.927V328.524C264.476 328.866 264.612 329.194 264.853 329.436C265.094 329.678 265.421 329.816 265.762 329.819H311.41C311.752 329.817 312.08 329.68 312.321 329.437C312.562 329.195 312.698 328.866 312.698 328.524V321.927H264.475Z" fill="#3F3D56"/>
<path d="M189.222 152.623V277.54C189.224 279.132 189.856 280.658 190.982 281.784C192.108 282.909 193.634 283.542 195.226 283.543H380.339C381.931 283.542 383.457 282.909 384.583 281.784C385.709 280.658 386.341 279.132 386.343 277.54V152.623C386.339 151.033 385.705 149.509 384.58 148.385C383.454 147.261 381.93 146.628 380.339 146.626H195.226C193.635 146.628 192.111 147.261 190.985 148.385C189.86 149.509 189.226 151.033 189.222 152.623Z" fill="#3F3D56"/>
<path d="M193.565 154.178V275.999C193.566 276.849 193.905 277.665 194.506 278.266C195.108 278.867 195.923 279.206 196.774 279.207H378.798C379.649 279.206 380.464 278.867 381.065 278.266C381.667 277.665 382.005 276.849 382.007 275.999V154.178C382.007 153.326 381.669 152.509 381.067 151.907C380.466 151.304 379.65 150.964 378.798 150.962H196.774C195.922 150.964 195.106 151.304 194.504 151.907C193.903 152.509 193.565 153.326 193.565 154.178Z" fill="#6933DC"/>
<path d="M230.681 331.373C230.866 331.605 231.102 331.792 231.37 331.92C231.638 332.049 231.931 332.115 232.229 332.113H340.521C340.818 332.113 341.11 332.046 341.377 331.919C341.645 331.791 341.88 331.606 342.067 331.376C342.253 331.146 342.386 330.877 342.456 330.589C342.525 330.301 342.53 330.001 342.469 329.712L340.788 321.727C340.719 321.401 340.569 321.098 340.352 320.845C340.135 320.592 339.859 320.398 339.548 320.279C339.322 320.191 339.082 320.146 338.84 320.146H233.903C233.661 320.146 233.421 320.191 233.196 320.279C232.885 320.398 232.608 320.592 232.392 320.845C232.175 321.098 232.025 321.401 231.955 321.727L230.274 329.712C230.214 330.001 230.22 330.301 230.29 330.588C230.361 330.875 230.494 331.143 230.681 331.373Z" fill="#2F2E41"/>
<path d="M335.061 323.585H337.746C337.925 323.585 338.071 323.439 338.071 323.26V321.91C338.071 321.73 337.925 321.584 337.746 321.584H335.061C334.882 321.584 334.736 321.73 334.736 321.91V323.26C334.736 323.439 334.882 323.585 335.061 323.585Z" fill="#3F3D56"/>
<path d="M328.391 323.585H331.075C331.255 323.585 331.401 323.439 331.401 323.26V321.91C331.401 321.73 331.255 321.584 331.075 321.584H328.391C328.211 321.584 328.065 321.73 328.065 321.91V323.26C328.065 323.439 328.211 323.585 328.391 323.585Z" fill="#3F3D56"/>
<path d="M321.72 323.585H324.404C324.584 323.585 324.73 323.439 324.73 323.26V321.91C324.73 321.73 324.584 321.584 324.404 321.584H321.72C321.54 321.584 321.394 321.73 321.394 321.91V323.26C321.394 323.439 321.54 323.585 321.72 323.585Z" fill="#3F3D56"/>
<path d="M315.049 323.585H317.733C317.913 323.585 318.059 323.439 318.059 323.26V321.91C318.059 321.73 317.913 321.584 317.733 321.584H315.049C314.869 321.584 314.724 321.73 314.724 321.91V323.26C314.724 323.439 314.869 323.585 315.049 323.585Z" fill="#3F3D56"/>
<path d="M308.379 323.585H311.063C311.242 323.585 311.388 323.439 311.388 323.26V321.91C311.388 321.73 311.242 321.584 311.063 321.584H308.379C308.199 321.584 308.053 321.73 308.053 321.91V323.26C308.053 323.439 308.199 323.585 308.379 323.585Z" fill="#3F3D56"/>
<path d="M301.708 323.585H304.392C304.572 323.585 304.718 323.439 304.718 323.26V321.91C304.718 321.73 304.572 321.584 304.392 321.584H301.708C301.528 321.584 301.382 321.73 301.382 321.91V323.26C301.382 323.439 301.528 323.585 301.708 323.585Z" fill="#3F3D56"/>
<path d="M295.037 323.585H297.721C297.901 323.585 298.047 323.439 298.047 323.26V321.91C298.047 321.73 297.901 321.584 297.721 321.584H295.037C294.857 321.584 294.711 321.73 294.711 321.91V323.26C294.711 323.439 294.857 323.585 295.037 323.585Z" fill="#3F3D56"/>
<path d="M288.366 323.585H291.05C291.23 323.585 291.376 323.439 291.376 323.26V321.91C291.376 321.73 291.23 321.584 291.05 321.584H288.366C288.186 321.584 288.041 321.73 288.041 321.91V323.26C288.041 323.439 288.186 323.585 288.366 323.585Z" fill="#3F3D56"/>
<path d="M281.696 323.585H284.38C284.559 323.585 284.705 323.439 284.705 323.26V321.91C284.705 321.73 284.559 321.584 284.38 321.584H281.696C281.516 321.584 281.37 321.73 281.37 321.91V323.26C281.37 323.439 281.516 323.585 281.696 323.585Z" fill="#3F3D56"/>
<path d="M275.025 323.585H277.709C277.889 323.585 278.035 323.439 278.035 323.26V321.91C278.035 321.73 277.889 321.584 277.709 321.584H275.025C274.845 321.584 274.699 321.73 274.699 321.91V323.26C274.699 323.439 274.845 323.585 275.025 323.585Z" fill="#3F3D56"/>
<path d="M268.354 323.585H271.038C271.218 323.585 271.364 323.439 271.364 323.26V321.91C271.364 321.73 271.218 321.584 271.038 321.584H268.354C268.174 321.584 268.028 321.73 268.028 321.91V323.26C268.028 323.439 268.174 323.585 268.354 323.585Z" fill="#3F3D56"/>
<path d="M261.683 323.585H264.367C264.547 323.585 264.693 323.439 264.693 323.26V321.91C264.693 321.73 264.547 321.584 264.367 321.584H261.683C261.503 321.584 261.358 321.73 261.358 321.91V323.26C261.358 323.439 261.503 323.585 261.683 323.585Z" fill="#3F3D56"/>
<path d="M255.013 323.585H257.697C257.877 323.585 258.022 323.439 258.022 323.26V321.91C258.022 321.73 257.877 321.584 257.697 321.584H255.013C254.833 321.584 254.687 321.73 254.687 321.91V323.26C254.687 323.439 254.833 323.585 255.013 323.585Z" fill="#3F3D56"/>
<path d="M248.342 323.585H251.026C251.206 323.585 251.352 323.439 251.352 323.26V321.91C251.352 321.73 251.206 321.584 251.026 321.584H248.342C248.162 321.584 248.016 321.73 248.016 321.91V323.26C248.016 323.439 248.162 323.585 248.342 323.585Z" fill="#3F3D56"/>
<path d="M241.671 323.585H244.355C244.535 323.585 244.681 323.439 244.681 323.26V321.91C244.681 321.73 244.535 321.584 244.355 321.584H241.671C241.491 321.584 241.345 321.73 241.345 321.91V323.26C241.345 323.439 241.491 323.585 241.671 323.585Z" fill="#3F3D56"/>
<path d="M235 323.585H237.684C237.864 323.585 238.01 323.439 238.01 323.26V321.91C238.01 321.73 237.864 321.584 237.684 321.584H235C234.821 321.584 234.675 321.73 234.675 321.91V323.26C234.675 323.439 234.821 323.585 235 323.585Z" fill="#3F3D56"/>
<path d="M335.14 326.92H337.824C338.004 326.92 338.15 326.775 338.15 326.595V325.245C338.15 325.065 338.004 324.919 337.824 324.919H335.14C334.96 324.919 334.815 325.065 334.815 325.245V326.595C334.815 326.775 334.96 326.92 335.14 326.92Z" fill="#3F3D56"/>
<path d="M328.47 326.92H331.154C331.334 326.92 331.479 326.775 331.479 326.595V325.245C331.479 325.065 331.334 324.919 331.154 324.919H328.47C328.29 324.919 328.144 325.065 328.144 325.245V326.595C328.144 326.775 328.29 326.92 328.47 326.92Z" fill="#3F3D56"/>
<path d="M321.799 326.92H324.483C324.663 326.92 324.809 326.775 324.809 326.595V325.245C324.809 325.065 324.663 324.919 324.483 324.919H321.799C321.619 324.919 321.473 325.065 321.473 325.245V326.595C321.473 326.775 321.619 326.92 321.799 326.92Z" fill="#3F3D56"/>
<path d="M315.128 326.92H317.812C317.992 326.92 318.138 326.775 318.138 326.595V325.245C318.138 325.065 317.992 324.919 317.812 324.919H315.128C314.948 324.919 314.802 325.065 314.802 325.245V326.595C314.802 326.775 314.948 326.92 315.128 326.92Z" fill="#3F3D56"/>
<path d="M308.457 326.92H311.141C311.321 326.92 311.467 326.775 311.467 326.595V325.245C311.467 325.065 311.321 324.919 311.141 324.919H308.457C308.278 324.919 308.132 325.065 308.132 325.245V326.595C308.132 326.775 308.278 326.92 308.457 326.92Z" fill="#3F3D56"/>
<path d="M301.787 326.92H304.471C304.651 326.92 304.796 326.775 304.796 326.595V325.245C304.796 325.065 304.651 324.919 304.471 324.919H301.787C301.607 324.919 301.461 325.065 301.461 325.245V326.595C301.461 326.775 301.607 326.92 301.787 326.92Z" fill="#3F3D56"/>
<path d="M295.116 326.92H297.8C297.98 326.92 298.126 326.775 298.126 326.595V325.245C298.126 325.065 297.98 324.919 297.8 324.919H295.116C294.936 324.919 294.79 325.065 294.79 325.245V326.595C294.79 326.775 294.936 326.92 295.116 326.92Z" fill="#3F3D56"/>
<path d="M288.445 326.92H291.129C291.309 326.92 291.455 326.775 291.455 326.595V325.245C291.455 325.065 291.309 324.919 291.129 324.919H288.445C288.265 324.919 288.119 325.065 288.119 325.245V326.595C288.119 326.775 288.265 326.92 288.445 326.92Z" fill="#3F3D56"/>
<path d="M281.774 326.92H284.458C284.638 326.92 284.784 326.775 284.784 326.595V325.245C284.784 325.065 284.638 324.919 284.458 324.919H281.774C281.595 324.919 281.449 325.065 281.449 325.245V326.595C281.449 326.775 281.595 326.92 281.774 326.92Z" fill="#3F3D56"/>
<path d="M275.104 326.92H277.788C277.968 326.92 278.113 326.775 278.113 326.595V325.245C278.113 325.065 277.968 324.919 277.788 324.919H275.104C274.924 324.919 274.778 325.065 274.778 325.245V326.595C274.778 326.775 274.924 326.92 275.104 326.92Z" fill="#3F3D56"/>
<path d="M268.433 326.92H271.117C271.297 326.92 271.443 326.775 271.443 326.595V325.245C271.443 325.065 271.297 324.919 271.117 324.919H268.433C268.253 324.919 268.107 325.065 268.107 325.245V326.595C268.107 326.775 268.253 326.92 268.433 326.92Z" fill="#3F3D56"/>
<path d="M261.762 326.92H264.446C264.626 326.92 264.772 326.775 264.772 326.595V325.245C264.772 325.065 264.626 324.919 264.446 324.919H261.762C261.582 324.919 261.437 325.065 261.437 325.245V326.595C261.437 326.775 261.582 326.92 261.762 326.92Z" fill="#3F3D56"/>
<path d="M255.091 326.92H257.775C257.955 326.92 258.101 326.775 258.101 326.595V325.245C258.101 325.065 257.955 324.919 257.775 324.919H255.091C254.912 324.919 254.766 325.065 254.766 325.245V326.595C254.766 326.775 254.912 326.92 255.091 326.92Z" fill="#3F3D56"/>
<path d="M248.421 326.92H251.105C251.285 326.92 251.43 326.775 251.43 326.595V325.245C251.43 325.065 251.285 324.919 251.105 324.919H248.421C248.241 324.919 248.095 325.065 248.095 325.245V326.595C248.095 326.775 248.241 326.92 248.421 326.92Z" fill="#3F3D56"/>
<path d="M241.75 326.92H244.434C244.614 326.92 244.76 326.775 244.76 326.595V325.245C244.76 325.065 244.614 324.919 244.434 324.919H241.75C241.57 324.919 241.424 325.065 241.424 325.245V326.595C241.424 326.775 241.57 326.92 241.75 326.92Z" fill="#3F3D56"/>
<path d="M235.079 326.92H237.763C237.943 326.92 238.089 326.775 238.089 326.595V325.245C238.089 325.065 237.943 324.919 237.763 324.919H235.079C234.899 324.919 234.754 325.065 234.754 325.245V326.595C234.754 326.775 234.899 326.92 235.079 326.92Z" fill="#3F3D56"/>
<path d="M279.773 330.923H305.805C305.985 330.923 306.131 330.777 306.131 330.597V329.247C306.131 329.067 305.985 328.922 305.805 328.922H279.773C279.593 328.922 279.448 329.067 279.448 329.247V330.597C279.448 330.777 279.593 330.923 279.773 330.923Z" fill="#3F3D56"/>
<path d="M205.92 167.744H376.24C376.417 167.74 376.586 167.667 376.709 167.54C376.833 167.414 376.903 167.244 376.903 167.066C376.903 166.889 376.833 166.719 376.709 166.593C376.586 166.466 376.417 166.393 376.24 166.389H205.92C205.743 166.393 205.575 166.466 205.451 166.593C205.327 166.719 205.258 166.889 205.258 167.066C205.258 167.244 205.327 167.414 205.451 167.54C205.575 167.667 205.743 167.74 205.92 167.744Z" fill="#3F3D56"/>
<path d="M364.646 162.931C366.838 162.931 368.616 161.114 368.616 158.873C368.616 156.632 366.838 154.815 364.646 154.815C362.454 154.815 360.677 156.632 360.677 158.873C360.677 161.114 362.454 162.931 364.646 162.931Z" fill="#3F3D56"/>
<path d="M350.934 162.931C353.126 162.931 354.903 161.114 354.903 158.873C354.903 156.632 353.126 154.815 350.934 154.815C348.742 154.815 346.964 156.632 346.964 158.873C346.964 161.114 348.742 162.931 350.934 162.931Z" fill="#3F3D56"/>
<path d="M337.221 162.931C339.414 162.931 341.191 161.114 341.191 158.873C341.191 156.632 339.414 154.815 337.221 154.815C335.029 154.815 333.252 156.632 333.252 158.873C333.252 161.114 335.029 162.931 337.221 162.931Z" fill="#3F3D56"/>
<path d="M213.45 156.559C213.45 156.655 213.468 156.75 213.505 156.839C213.541 156.928 213.594 157.009 213.662 157.077C213.729 157.145 213.81 157.199 213.898 157.236C213.987 157.273 214.082 157.293 214.178 157.293H223.917C224.109 157.289 224.292 157.209 224.427 157.071C224.562 156.933 224.637 156.749 224.637 156.556C224.637 156.363 224.562 156.178 224.427 156.041C224.292 155.903 224.109 155.823 223.917 155.819H214.178C213.983 155.821 213.798 155.9 213.661 156.039C213.525 156.178 213.449 156.365 213.45 156.559Z" fill="#3F3D56"/>
<path d="M213.45 159.328C213.45 159.424 213.468 159.519 213.505 159.607C213.541 159.696 213.594 159.777 213.662 159.845C213.729 159.913 213.81 159.967 213.898 160.005C213.987 160.042 214.082 160.061 214.178 160.061H223.917C224.109 160.057 224.293 159.978 224.428 159.84C224.562 159.702 224.638 159.517 224.638 159.324C224.638 159.132 224.562 158.946 224.428 158.809C224.293 158.671 224.109 158.591 223.917 158.587H214.178C213.983 158.59 213.798 158.669 213.661 158.807C213.525 158.946 213.449 159.133 213.45 159.328Z" fill="#3F3D56"/>
<path d="M213.45 162.089C213.449 162.284 213.525 162.471 213.661 162.609C213.798 162.748 213.983 162.827 214.178 162.83H223.917C224.109 162.825 224.292 162.746 224.427 162.608C224.562 162.47 224.637 162.285 224.637 162.093C224.637 161.9 224.562 161.715 224.427 161.577C224.292 161.44 224.109 161.36 223.917 161.355H214.178C214.082 161.356 213.987 161.375 213.898 161.412C213.81 161.449 213.729 161.504 213.662 161.572C213.594 161.64 213.541 161.721 213.505 161.809C213.468 161.898 213.45 161.993 213.45 162.089Z" fill="#3F3D56"/>
<path d="M216.46 183.485H212.961C211.9 183.485 211.04 184.345 211.04 185.406C211.04 186.467 211.9 187.327 212.961 187.327H216.46C217.521 187.327 218.381 186.467 218.381 185.406C218.381 184.345 217.521 183.485 216.46 183.485Z" fill="#E6E6E6"/>
<path d="M256.485 183.485H252.985C251.924 183.485 251.064 184.345 251.064 185.406C251.064 186.467 251.924 187.327 252.985 187.327H256.485C257.546 187.327 258.406 186.467 258.406 185.406C258.406 184.345 257.546 183.485 256.485 183.485Z" fill="#E6E6E6"/>
<path d="M267.825 183.485H264.325C263.264 183.485 262.404 184.345 262.404 185.406C262.404 186.467 263.264 187.327 264.325 187.327H267.825C268.886 187.327 269.746 186.467 269.746 185.406C269.746 184.345 268.886 183.485 267.825 183.485Z" fill="#E6E6E6"/>
<path d="M245.598 183.164H223.848C222.787 183.164 221.926 184.024 221.926 185.085C221.926 186.146 222.787 187.007 223.848 187.007H245.598C246.659 187.007 247.519 186.146 247.519 185.085C247.519 184.024 246.659 183.164 245.598 183.164Z" fill="#E6E6E6"/>
<path d="M298.964 183.164H277.213C276.152 183.164 275.292 184.024 275.292 185.085C275.292 186.146 276.152 187.007 277.213 187.007H298.964C300.025 187.007 300.885 186.146 300.885 185.085C300.885 184.024 300.025 183.164 298.964 183.164Z" fill="#E6E6E6"/>
<path d="M227.134 192.156H223.634C222.573 192.156 221.713 193.017 221.713 194.078C221.713 195.139 222.573 195.999 223.634 195.999H227.134C228.195 195.999 229.055 195.139 229.055 194.078C229.055 193.017 228.195 192.156 227.134 192.156Z" fill="#E6E6E6"/>
<path d="M267.158 192.156H263.658C262.597 192.156 261.737 193.017 261.737 194.078C261.737 195.139 262.597 195.999 263.658 195.999H267.158C268.219 195.999 269.079 195.139 269.079 194.078C269.079 193.017 268.219 192.156 267.158 192.156Z" fill="#E6E6E6"/>
<path d="M278.498 192.156H274.999C273.938 192.156 273.078 193.017 273.078 194.078C273.078 195.139 273.938 195.999 274.999 195.999H278.498C279.559 195.999 280.419 195.139 280.419 194.078C280.419 193.017 279.559 192.156 278.498 192.156Z" fill="#E6E6E6"/>
<path d="M256.271 191.836H234.521C233.46 191.836 232.6 192.696 232.6 193.757C232.6 194.818 233.46 195.678 234.521 195.678H256.271C257.332 195.678 258.192 194.818 258.192 193.757C258.192 192.696 257.332 191.836 256.271 191.836Z" fill="#E6E6E6"/>
<path d="M309.637 191.836H287.887C286.826 191.836 285.966 192.696 285.966 193.757C285.966 194.818 286.826 195.678 287.887 195.678H309.637C310.698 195.678 311.558 194.818 311.558 193.757C311.558 192.696 310.698 191.836 309.637 191.836Z" fill="#E6E6E6"/>
<path d="M237.807 200.828H234.307C233.246 200.828 232.386 201.688 232.386 202.75C232.386 203.811 233.246 204.671 234.307 204.671H237.807C238.868 204.671 239.728 203.811 239.728 202.75C239.728 201.688 238.868 200.828 237.807 200.828Z" fill="#E6E6E6"/>
<path d="M277.831 200.828H274.332C273.271 200.828 272.41 201.688 272.41 202.75C272.41 203.811 273.271 204.671 274.332 204.671H277.831C278.892 204.671 279.752 203.811 279.752 202.75C279.752 201.688 278.892 200.828 277.831 200.828Z" fill="#E6E6E6"/>
<path d="M289.171 200.828H285.672C284.611 200.828 283.751 201.688 283.751 202.75C283.751 203.811 284.611 204.671 285.672 204.671H289.171C290.232 204.671 291.093 203.811 291.093 202.75C291.093 201.688 290.232 200.828 289.171 200.828Z" fill="#E6E6E6"/>
<path d="M266.944 200.508H245.194C244.133 200.508 243.273 201.368 243.273 202.429C243.273 203.49 244.133 204.35 245.194 204.35H266.944C268.005 204.35 268.866 203.49 268.866 202.429C268.866 201.368 268.005 200.508 266.944 200.508Z" fill="#E6E6E6"/>
<path d="M320.31 200.508H298.56C297.499 200.508 296.639 201.368 296.639 202.429C296.639 203.49 297.499 204.35 298.56 204.35H320.31C321.371 204.35 322.231 203.49 322.231 202.429C322.231 201.368 321.371 200.508 320.31 200.508Z" fill="#E6E6E6"/>
<path d="M248.48 209.5H244.98C243.919 209.5 243.059 210.361 243.059 211.422C243.059 212.483 243.919 213.343 244.98 213.343H248.48C249.541 213.343 250.401 212.483 250.401 211.422C250.401 210.361 249.541 209.5 248.48 209.5Z" fill="#E6E6E6"/>
<path d="M288.504 209.5H285.005C283.944 209.5 283.084 210.361 283.084 211.422C283.084 212.483 283.944 213.343 285.005 213.343H288.504C289.565 213.343 290.426 212.483 290.426 211.422C290.426 210.361 289.565 209.5 288.504 209.5Z" fill="#E6E6E6"/>
<path d="M299.845 209.5H296.345C295.284 209.5 294.424 210.361 294.424 211.422C294.424 212.483 295.284 213.343 296.345 213.343H299.845C300.906 213.343 301.766 212.483 301.766 211.422C301.766 210.361 300.906 209.5 299.845 209.5Z" fill="#E6E6E6"/>
<path d="M277.618 209.18H255.867C254.806 209.18 253.946 210.04 253.946 211.101C253.946 212.162 254.806 213.022 255.867 213.022H277.618C278.679 213.022 279.539 212.162 279.539 211.101C279.539 210.04 278.679 209.18 277.618 209.18Z" fill="#E6E6E6"/>
<path d="M256.485 243.984H252.985C251.924 243.984 251.064 244.844 251.064 245.905C251.064 246.966 251.924 247.826 252.985 247.826H256.485C257.546 247.826 258.406 246.966 258.406 245.905C258.406 244.844 257.546 243.984 256.485 243.984Z" fill="#E6E6E6"/>
<path d="M267.825 243.984H264.325C263.264 243.984 262.404 244.844 262.404 245.905C262.404 246.966 263.264 247.826 264.325 247.826H267.825C268.886 247.826 269.746 246.966 269.746 245.905C269.746 244.844 268.886 243.984 267.825 243.984Z" fill="#E6E6E6"/>
<path d="M298.964 244.304H277.213C276.152 244.304 275.292 245.164 275.292 246.225C275.292 247.286 276.152 248.146 277.213 248.146H298.964C300.025 248.146 300.885 247.286 300.885 246.225C300.885 245.164 300.025 244.304 298.964 244.304Z" fill="#E6E6E6"/>
<path d="M216.46 243.984H212.961C211.9 243.984 211.04 244.844 211.04 245.905C211.04 246.966 211.9 247.826 212.961 247.826H216.46C217.521 247.826 218.381 246.966 218.381 245.905C218.381 244.844 217.521 243.984 216.46 243.984Z" fill="#E6E6E6"/>
<path d="M245.598 244.304H223.848C222.787 244.304 221.926 245.164 221.926 246.225C221.926 247.286 222.787 248.146 223.848 248.146H245.598C246.659 248.146 247.519 247.286 247.519 246.225C247.519 245.164 246.659 244.304 245.598 244.304Z" fill="#E6E6E6"/>
<path d="M227.134 235.312H223.634C222.573 235.312 221.713 236.172 221.713 237.233C221.713 238.294 222.573 239.154 223.634 239.154H227.134C228.195 239.154 229.055 238.294 229.055 237.233C229.055 236.172 228.195 235.312 227.134 235.312Z" fill="#E6E6E6"/>
<path d="M267.158 235.312H263.658C262.597 235.312 261.737 236.172 261.737 237.233C261.737 238.294 262.597 239.154 263.658 239.154H267.158C268.219 239.154 269.079 238.294 269.079 237.233C269.079 236.172 268.219 235.312 267.158 235.312Z" fill="#E6E6E6"/>
<path d="M278.498 235.312H274.999C273.938 235.312 273.078 236.172 273.078 237.233C273.078 238.294 273.938 239.154 274.999 239.154H278.498C279.559 239.154 280.419 238.294 280.419 237.233C280.419 236.172 279.559 235.312 278.498 235.312Z" fill="#E6E6E6"/>
<path d="M256.271 235.632H234.521C233.46 235.632 232.6 236.492 232.6 237.553C232.6 238.614 233.46 239.474 234.521 239.474H256.271C257.332 239.474 258.192 238.614 258.192 237.553C258.192 236.492 257.332 235.632 256.271 235.632Z" fill="#E6E6E6"/>
<path d="M237.807 226.64H234.307C233.246 226.64 232.386 227.5 232.386 228.561C232.386 229.622 233.246 230.482 234.307 230.482H237.807C238.868 230.482 239.728 229.622 239.728 228.561C239.728 227.5 238.868 226.64 237.807 226.64Z" fill="#E6E6E6"/>
<path d="M277.831 226.64H274.332C273.271 226.64 272.41 227.5 272.41 228.561C272.41 229.622 273.271 230.482 274.332 230.482H277.831C278.892 230.482 279.752 229.622 279.752 228.561C279.752 227.5 278.892 226.64 277.831 226.64Z" fill="#E6E6E6"/>
<path d="M289.171 226.64H285.672C284.611 226.64 283.751 227.5 283.751 228.561C283.751 229.622 284.611 230.482 285.672 230.482H289.171C290.232 230.482 291.093 229.622 291.093 228.561C291.093 227.5 290.232 226.64 289.171 226.64Z" fill="#E6E6E6"/>
<path d="M266.944 226.96H245.194C244.133 226.96 243.273 227.82 243.273 228.881C243.273 229.942 244.133 230.802 245.194 230.802H266.944C268.005 230.802 268.866 229.942 268.866 228.881C268.866 227.82 268.005 226.96 266.944 226.96Z" fill="#E6E6E6"/>
<path d="M248.48 217.968H244.98C243.919 217.968 243.059 218.828 243.059 219.889C243.059 220.95 243.919 221.81 244.98 221.81H248.48C249.541 221.81 250.401 220.95 250.401 219.889C250.401 218.828 249.541 217.968 248.48 217.968Z" fill="#E6E6E6"/>
<path d="M288.504 217.968H285.005C283.944 217.968 283.084 218.828 283.084 219.889C283.084 220.95 283.944 221.81 285.005 221.81H288.504C289.565 221.81 290.426 220.95 290.426 219.889C290.426 218.828 289.565 217.968 288.504 217.968Z" fill="#E6E6E6"/>
<path d="M299.845 217.968H296.345C295.284 217.968 294.424 218.828 294.424 219.889C294.424 220.95 295.284 221.81 296.345 221.81H299.845C300.906 221.81 301.766 220.95 301.766 219.889C301.766 218.828 300.906 217.968 299.845 217.968Z" fill="#E6E6E6"/>
<path d="M277.618 218.288H255.867C254.806 218.288 253.946 219.148 253.946 220.209C253.946 221.271 254.806 222.131 255.867 222.131H277.618C278.679 222.131 279.539 221.271 279.539 220.209C279.539 219.148 278.679 218.288 277.618 218.288Z" fill="#E6E6E6"/>
<path d="M233.417 368.537C233.271 368.61 233.124 368.684 232.977 368.75C232.05 369.211 231.116 369.664 230.175 370.111C227.36 371.452 224.51 372.726 221.623 373.933C214.029 377.11 206.237 379.79 198.296 381.958C196.962 373.64 195.668 354.021 194.427 339.592C194.193 336.877 193.96 334.349 193.726 332.115C193.505 329.181 193.083 326.266 192.466 323.389C192.405 323.164 192.318 322.947 192.205 322.742C192.332 323.896 192.466 327.338 192.592 332.115C192.659 334.349 192.719 336.877 192.786 339.592C193.099 353.481 193.426 372.379 193.753 383.139C192.826 383.366 191.892 383.593 190.958 383.806C190.371 383.946 189.777 384.08 189.184 384.206C188.463 384.366 187.743 384.527 187.022 384.673C186.268 384.833 185.515 384.987 184.761 385.134C172.443 387.553 159.918 388.769 147.365 388.762C146.531 388.762 145.704 388.756 144.87 388.749C144.616 388.749 144.363 388.742 144.103 388.736C143.369 388.722 142.608 388.709 141.835 388.689C127 388.279 112.262 386.155 97.9145 382.359L98.4948 339.592L98.5949 332.115L98.6349 329.279C98.3045 330.191 98.1068 331.146 98.0479 332.115C97.8144 333.936 97.5743 336.517 97.3341 339.592C96.4202 351.44 95.4797 370.551 94.5057 381.425C82.972 378.143 74.5402 375.147 64.0004 369.878C63.5935 369.677 63.1799 369.471 62.773 369.264C62.8464 368.75 62.9264 368.237 62.9998 367.71C64.1939 359.411 62.7864 348.611 64.1072 339.592C65.1145 332.635 66.1551 325.951 67.2024 320.281C68.4698 313.456 69.7572 308.093 71.0314 305.485C72.4989 302.476 73.9665 299.515 75.3874 296.68C76.0011 295.459 76.6037 294.26 77.1952 293.084C77.5154 292.45 77.8355 291.823 78.1491 291.21C79.5766 288.414 80.9241 285.833 82.1582 283.545C83.0254 281.937 83.8259 280.483 84.5597 279.209C85.4202 277.708 86.1807 276.467 86.8077 275.527C91.4392 268.506 98.3305 263.279 106.34 260.711L106.54 260.658L106.733 260.738L106.953 260.838L119.668 256.188L125.345 242.52L154.502 240.725L159.212 244.308L161.62 246.142L164.188 248.097L168.911 251.692L170.252 252.106L172.247 252.719L185.888 256.909L186.028 256.849L186.228 256.902C193.517 259.235 199.896 263.782 204.48 269.91C204.933 270.497 205.353 271.104 205.76 271.718C206.868 273.359 208.362 275.954 210.123 279.209C210.85 280.55 211.617 282.004 212.424 283.545C212.911 284.472 217.114 297.587 221.203 310.982C225.025 323.523 228.748 336.31 229.235 339.592C229.321 340.199 229.415 340.813 229.502 341.42C230.055 345.216 230.602 349.038 231.129 352.767C231.91 358.297 232.67 363.634 233.397 368.403C233.404 368.45 233.411 368.49 233.417 368.537Z" fill="#3F3D56"/>
<path opacity="0.2" d="M202.517 320.25L196.849 298.375L191.844 317.251L202.517 320.25Z" fill="#333333"/>
<path d="M10.5593 319.996C10.8532 320.852 11.4107 321.593 12.1517 322.112C12.8928 322.631 13.7793 322.902 14.6839 322.885L32.3559 322.431C33.2671 322.413 34.1482 322.101 34.8673 321.541C35.5864 320.981 36.105 320.203 36.3456 319.324L38.8464 292.583C39.7336 292.985 40.6995 293.183 41.6734 293.164C43.3821 293.121 45.0038 292.401 46.1817 291.162C47.3597 289.924 47.9973 288.268 47.9544 286.559C47.9115 284.851 47.1916 283.229 45.953 282.051C44.7144 280.873 43.0587 280.235 41.3499 280.278C40.9607 280.277 40.5724 280.317 40.1917 280.399C39.7778 279.951 39.2746 279.595 38.7146 279.353C38.1546 279.111 37.5503 278.99 36.9404 278.996L9.75677 279.698C9.53127 279.706 9.30692 279.734 9.08623 279.781C8.4901 279.892 7.92469 280.13 7.42806 280.478C6.93142 280.826 6.51508 281.276 6.20707 281.798C5.89907 282.321 5.70654 282.903 5.64244 283.506C5.57834 284.109 5.64416 284.719 5.83547 285.294L10.5593 319.996ZM39.3592 290.767L41.1387 284.395C41.3411 283.659 41.3458 282.882 41.1523 282.144C41.2386 282.144 41.3148 282.103 41.4012 282.102C42.6213 282.077 43.8017 282.537 44.6835 283.381C45.5652 284.224 46.0765 285.383 46.105 286.603C46.1336 287.823 45.6772 289.005 44.8359 289.889C43.9946 290.773 42.837 291.288 41.617 291.319C40.8282 291.344 40.0476 291.153 39.3592 290.767Z" fill="#2F2E41"/>
<path d="M9.08624 279.781C9.66538 283.092 16.1766 285.42 24.0059 285.016C31.2055 284.684 37.0922 282.156 38.1707 279.16C37.7716 279.042 37.3565 278.986 36.9404 278.996L9.75678 279.698C9.53128 279.706 9.30693 279.734 9.08624 279.781Z" fill="#3F3D56"/>
<path d="M25.4408 305.302C25.4766 305.293 25.5107 305.278 25.5415 305.257L29.3793 302.745C29.4257 302.715 29.4638 302.674 29.4902 302.625C29.5166 302.576 29.5304 302.522 29.5304 302.467C29.5305 302.411 29.5167 302.357 29.4903 302.308C29.464 302.259 29.4259 302.218 29.3795 302.188L25.3905 299.575C25.3539 299.551 25.3129 299.534 25.2698 299.526C25.2267 299.517 25.1824 299.518 25.1394 299.526C25.0964 299.535 25.0556 299.552 25.0192 299.577C24.9829 299.602 24.9519 299.633 24.9278 299.67C24.9037 299.707 24.8871 299.748 24.879 299.791C24.8709 299.834 24.8713 299.879 24.8804 299.922C24.8894 299.964 24.9068 300.005 24.9317 300.041C24.9565 300.078 24.9882 300.109 25.025 300.132L28.5878 302.466L25.1764 304.699C25.1104 304.743 25.0617 304.808 25.0393 304.883C25.0168 304.959 25.0218 305.04 25.0535 305.112C25.0853 305.185 25.1416 305.243 25.2125 305.278C25.2834 305.313 25.3643 305.321 25.4408 305.302H25.4408Z" fill="#6933DC"/>
<path d="M19.3793 305.581C19.4437 305.565 19.5018 305.53 19.5461 305.48C19.5904 305.431 19.6188 305.369 19.6279 305.303C19.6369 305.238 19.6261 305.171 19.5968 305.111C19.5675 305.051 19.521 305.002 19.4634 304.969L15.9259 302.941L19.345 300.401C19.3802 300.375 19.4098 300.342 19.4323 300.304C19.4547 300.267 19.4696 300.225 19.476 300.182C19.4824 300.139 19.4801 300.094 19.4695 300.052C19.4588 300.01 19.4399 299.97 19.4138 299.935C19.3877 299.899 19.3549 299.87 19.3173 299.847C19.2798 299.825 19.2382 299.81 19.1948 299.804C19.1515 299.797 19.1074 299.799 19.065 299.81C19.0225 299.821 18.9826 299.84 18.9475 299.866L15.1194 302.709C15.0749 302.742 15.0393 302.786 15.0159 302.836C14.9924 302.886 14.9819 302.941 14.9851 302.997C14.9884 303.052 15.0054 303.105 15.0345 303.153C15.0637 303.2 15.1041 303.239 15.1522 303.266L19.1314 305.547C19.2065 305.59 19.2954 305.603 19.3793 305.581Z" fill="#6933DC"/>
<path d="M25.0591 307.503C25.0914 307.495 25.1222 307.482 25.1505 307.465C25.188 307.442 25.2206 307.412 25.2465 307.377C25.2724 307.341 25.291 307.301 25.3014 307.259C25.3118 307.216 25.3137 307.172 25.307 307.129C25.3002 307.085 25.285 307.044 25.2623 307.006L19.822 298.062C19.7757 297.987 19.7016 297.933 19.6158 297.912C19.53 297.892 19.4395 297.906 19.3641 297.952C19.2888 297.998 19.2347 298.072 19.2136 298.157C19.1926 298.243 19.2064 298.334 19.252 298.409L24.6923 307.353C24.7294 307.414 24.7851 307.462 24.8511 307.489C24.9171 307.516 24.99 307.521 25.0591 307.503Z" fill="#6933DC"/>
<path d="M523.753 369.262C523.346 369.469 522.932 369.676 522.525 369.876C511.986 375.146 503.554 378.141 492.02 381.423C491.046 370.55 490.105 351.438 489.192 339.591C488.951 336.516 488.711 333.934 488.478 332.113C488.419 331.145 488.221 330.19 487.891 329.278L487.931 332.113L488.031 339.591L488.611 382.357C474.264 386.153 459.526 388.277 444.691 388.688C443.917 388.708 443.157 388.721 442.423 388.734C442.163 388.741 441.909 388.748 441.656 388.748C440.822 388.754 439.995 388.761 439.161 388.761C423.528 388.773 407.951 386.884 392.773 383.138C393.1 372.378 393.426 353.479 393.74 339.591C393.807 336.876 393.867 334.348 393.933 332.113C394.06 327.337 394.194 323.895 394.32 322.741C394.208 322.945 394.121 323.162 394.06 323.388C393.442 326.264 393.021 329.179 392.799 332.113C392.566 334.348 392.332 336.876 392.099 339.591C390.858 354.02 389.564 373.638 388.23 381.957C380.289 379.789 372.497 377.108 364.902 373.932C360.9 372.264 356.969 370.465 353.108 368.535C353.842 363.732 354.609 358.349 355.397 352.766C356.01 348.436 356.644 343.987 357.291 339.591C358.292 332.8 392.286 259.469 400.297 256.9L400.497 256.847L400.637 256.907L414.279 252.718L416.274 252.104L417.615 251.691L422.337 248.095L424.906 246.141L427.314 244.306L432.023 240.724L461.181 242.518L466.858 256.187L479.572 260.836L479.793 260.736L479.986 260.656L480.186 260.709C488.195 263.277 495.086 268.505 499.718 275.525C500.345 276.466 501.106 277.706 501.966 279.207C502.7 280.482 503.5 281.936 504.368 283.543C505.602 285.831 506.949 288.413 508.377 291.208C508.69 291.822 509.01 292.449 509.331 293.083C509.924 294.257 510.527 295.455 511.138 296.678C512.559 299.513 514.027 302.475 515.494 305.483C516.768 308.092 518.056 313.455 519.323 320.279C520.371 325.949 521.411 332.633 522.419 339.591C523.739 348.61 522.332 359.41 523.526 367.708C523.599 368.235 523.679 368.749 523.753 369.262Z" fill="#3F3D56"/>
<path d="M438.237 235.818C456.966 235.818 472.149 220.635 472.149 201.906C472.149 183.177 456.966 167.994 438.237 167.994C419.508 167.994 404.326 183.177 404.326 201.906C404.326 220.635 419.508 235.818 438.237 235.818Z" fill="#FFB6B6"/>
<path opacity="0.2" d="M384.007 320.25L389.675 298.375L394.681 317.251L384.007 320.25Z" fill="#333333"/>
<path d="M534.84 305.997C532.812 333.934 534.913 346.235 523.719 369.269C513.535 374.254 502.927 378.321 492.02 381.423C490.886 381.743 489.75 382.055 488.611 382.357C474.264 386.153 459.526 388.278 444.691 388.688C443.917 388.708 443.157 388.721 442.423 388.734C442.163 388.741 441.909 388.748 441.656 388.748C440.822 388.754 439.995 388.761 439.161 388.761C423.528 388.773 407.951 386.884 392.773 383.138C391.252 382.764 389.738 382.371 388.23 381.957C380.289 379.789 372.497 377.108 364.902 373.932C360.9 372.264 356.969 370.465 353.108 368.535C352.235 368.095 351.361 367.655 350.5 367.201C346.078 359.423 343.563 349.964 343.509 338.597C346.571 319.012 528.075 289.107 534.84 305.997Z" fill="#2F2E41"/>
<path opacity="0.2" d="M534.834 310.781C534.938 309.052 535.054 307.265 535.189 305.405C528.425 288.515 346.92 318.42 343.858 338.005C343.867 339.801 343.944 341.543 344.073 343.244C351.488 323.914 523.919 295.491 534.834 310.781Z" fill="#333333"/>
<path d="M338.995 307.315L353.894 299.866L341.478 266.345L338.207 249.44C337.781 247.244 336.787 245.197 335.324 243.506C333.86 241.814 331.978 240.536 329.866 239.799C327.753 239.063 325.485 238.894 323.287 239.308C321.088 239.723 319.037 240.708 317.339 242.164C314.822 244.321 313.242 247.372 312.931 250.673C312.621 253.973 313.605 257.265 315.676 259.854L327.822 275.035L338.995 307.315Z" fill="#FFB6B6"/>
<path d="M353.894 293.658L334.029 303.59L349.104 350.825C350.187 354.217 352.127 357.272 354.738 359.693C357.348 362.114 360.54 363.82 364.004 364.645C368.275 365.662 372.758 365.292 376.805 363.589C380.851 361.886 384.25 358.939 386.509 355.174L426.484 286.656C429.316 281.935 430.191 276.293 428.92 270.936C427.649 265.578 424.334 260.93 419.682 257.984C417.18 256.4 414.373 255.36 411.443 254.932C408.513 254.504 405.525 254.698 402.675 255.502C399.825 256.305 397.175 257.699 394.9 259.594C392.624 261.489 390.773 263.842 389.466 266.499L365.067 318.489L353.894 293.658Z" fill="#3F3D56"/>
<path d="M139.757 233.477C160.364 233.477 177.07 216.772 177.07 196.165C177.07 175.557 160.364 158.852 139.757 158.852C119.15 158.852 102.444 175.557 102.444 196.165C102.444 216.772 119.15 233.477 139.757 233.477Z" fill="#A0616A"/>
<path d="M102.892 170.452C105.926 166.363 110.287 163.455 113.622 159.608C115.452 157.498 116.972 155.106 119.029 153.216C122.852 149.705 128.198 148.267 133.385 148.088C139.07 147.942 144.709 149.136 149.846 151.574C154.984 154.012 159.475 157.626 162.957 162.122C165.668 160.532 168.38 158.943 171.091 157.353C172.162 160.172 173.233 162.992 174.305 165.811C175.184 165.047 176.305 164.619 177.47 164.603C178.634 164.586 179.767 164.983 180.667 165.722C181.568 166.461 182.177 167.495 182.388 168.641C182.598 169.786 182.397 170.969 181.818 171.98C182.463 169.986 185.42 169.563 187.05 170.881C188.68 172.198 189.116 174.541 188.85 176.62C188.517 178.901 187.508 181.029 185.955 182.732C184.402 184.435 182.375 185.635 180.135 186.177C176.597 186.965 172.479 186.137 169.647 188.4C167.377 190.214 166.691 193.517 164.374 195.271C161.519 197.433 157.484 196.433 153.935 196.911C147.726 197.747 142.809 204.097 143.555 210.318C142.993 208.355 142.403 206.335 141.128 204.741C139.853 203.147 137.705 202.068 135.75 202.654C132.517 203.623 131.988 208.03 132.772 211.312C134.85 220.017 142.724 234.088 142.724 234.088C132.499 238.122 120.318 234.308 112.429 226.655C104.54 219.001 100.431 208.164 98.6413 197.319C97.1236 188.123 97.3387 177.937 102.892 170.452Z" fill="#2F2E41"/>
<path d="M480.735 220.6C487.834 204.324 483.812 189.348 475.158 181.402V181.396C471.756 173.771 467.233 167.888 462.057 166.507C459.555 164.899 457.127 163.011 454.432 162.051C453.177 161.581 451.839 161.37 450.5 161.431C449.161 161.491 447.848 161.823 446.641 162.404L445.267 162.037C444.099 159.055 442.732 158.995 441.211 160.957C435.354 158.228 430.077 157.008 425.381 157.008C410.065 157.008 401.006 169.975 398.605 185.652L411.406 189.06L415.855 181.969L413.801 189.701L420.865 191.575C431.618 205.577 418.75 237.877 402.441 255.848C406.323 254.774 410.19 253.867 414.041 253.126L428.036 232.607L419.364 251.285C423.867 250.625 429.61 251.258 435.888 252.533C438.002 249.771 439.116 246.089 438.022 242.807C439.811 246.268 441.044 249.989 441.678 253.833C454.926 257.069 472.997 258.73 482.736 259.957C490.605 257.388 490.626 228.378 480.735 220.6Z" fill="#2F2E41"/>
<path d="M485.353 165.238C490.553 176.881 480.061 181.889 470.45 181.747C461.765 181.619 454.384 175.518 453.941 166.844C453.728 162.678 455.179 158.599 457.974 155.503C460.769 152.407 464.679 150.548 468.844 150.335C477.519 149.891 481.812 157.308 485.353 165.238Z" fill="#2F2E41"/>
<path d="M244.137 354.766L235.572 340.48L264.05 318.875L275.891 306.374C277.429 304.75 279.367 303.558 281.51 302.917C283.654 302.276 285.928 302.209 288.105 302.723C290.282 303.236 292.287 304.312 293.918 305.843C295.549 307.373 296.75 309.306 297.401 311.446C298.365 314.618 298.059 318.04 296.548 320.99C295.037 323.941 292.438 326.189 289.301 327.26L270.901 333.541L244.137 354.766Z" fill="#A0616A"/>
<path d="M250.328 354.295L236.993 365.408L233.397 368.403L232.977 368.75C232.05 369.211 231.116 369.664 230.175 370.111C227.36 371.452 224.51 372.726 221.623 373.933C214.029 377.11 206.237 379.79 198.296 381.958C196.788 382.372 195.274 382.765 193.753 383.139C192.826 383.366 191.892 383.593 190.958 383.806C190.371 383.946 189.777 384.08 189.184 384.206C188.463 384.367 187.743 384.527 187.022 384.673C186.268 384.833 185.515 384.987 184.761 385.134C182.733 383.204 181.118 380.882 180.015 378.308C178.911 375.735 178.343 372.964 178.344 370.164C178.344 369.984 178.344 369.798 178.35 369.611L180.492 314.691L181.439 290.349C181.585 284.844 183.878 279.615 187.828 275.778C191.778 271.942 197.072 269.802 202.578 269.816C203.219 269.816 203.853 269.85 204.48 269.91C204.933 270.497 205.353 271.104 205.76 271.718C206.868 273.359 208.362 275.954 210.123 279.209C210.85 280.55 211.617 282.004 212.424 283.545C212.911 284.472 217.114 297.587 221.203 310.982L219.402 324.97L216.147 350.186L229.502 341.42L238.907 335.243L240.021 337.104L242.923 341.947L248.527 351.286L250.328 354.295Z" fill="#3F3D56"/>
<path d="M243.016 338.599C243.01 339.733 242.983 340.847 242.923 341.947C242.784 344.984 242.432 348.006 241.869 350.993C240.948 356.008 239.306 360.864 236.993 365.408C236.686 366.015 236.359 366.616 236.026 367.203C235.165 367.657 234.291 368.097 233.417 368.537C233.27 368.61 233.124 368.684 232.977 368.75C229.261 370.598 225.477 372.326 221.623 373.934C214.029 377.11 206.237 379.791 198.296 381.959C196.788 382.372 195.274 382.766 193.753 383.139C190.785 383.873 187.787 384.538 184.761 385.134C172.443 387.554 159.918 388.769 147.365 388.763C146.531 388.763 145.704 388.756 144.87 388.749C144.616 388.749 144.363 388.743 144.103 388.736C143.369 388.723 142.608 388.709 141.835 388.689C126.999 388.279 112.262 386.155 97.9145 382.359C96.7738 382.059 95.6375 381.747 94.5057 381.425C83.5993 378.323 72.9909 374.256 62.8063 369.271C51.6128 346.237 53.7141 333.936 51.6862 305.999C55.8488 295.599 126.272 302.944 180.492 314.691C195.207 317.879 208.722 321.395 219.402 324.97C230.435 328.659 238.434 332.408 241.569 335.93C242.301 336.66 242.805 337.587 243.016 338.599Z" fill="#2F2E41"/>
<path opacity="0.2" d="M51.6901 310.781C51.5865 309.052 51.4707 307.265 51.3357 305.405C58.0998 288.515 239.604 318.42 242.666 338.005C242.658 339.801 242.581 341.543 242.452 343.244C235.037 323.914 62.6052 295.491 51.6901 310.781Z" fill="#333333"/>
</g>
<path d="M110.901 113.931L112.901 114.447C115.024 114.997 116.298 117.164 115.749 119.286L115.218 121.336C114.668 123.46 112.502 124.734 110.379 124.185L108.379 123.668C106.256 123.117 104.982 120.952 105.531 118.829L106.062 116.778C106.612 114.656 108.779 113.38 110.901 113.931ZM128.671 59.0324C133.864 60.3792 137.311 63.2582 139.013 67.6723C140.37 71.1588 140.536 74.8847 139.509 78.8485C137.792 85.476 133.159 91.0032 125.607 95.4272C122.974 96.968 121.231 99.105 120.377 101.838C120.069 102.743 119.769 103.757 119.478 104.886C118.928 107.008 116.761 108.284 114.639 107.734L112.64 107.217C110.518 106.667 109.242 104.5 109.791 102.378C111.357 96.3293 114.007 92.2225 117.741 90.0544C121.775 87.7064 124.823 85.0158 126.887 81.9767C128.074 80.2066 128.947 78.2452 129.504 76.0913C130.079 73.8722 130.035 72.0014 129.371 70.4791C128.658 68.7273 127.224 67.7176 125.07 67.4528C123.06 67.1866 121.31 68.1722 119.819 70.4125C119.744 70.5216 119.67 70.632 119.598 70.7453C118.536 72.4022 116.412 73.0211 114.62 72.2068L112.866 71.4067C110.692 70.4154 109.87 67.7389 111.127 65.7067C112.373 63.6873 113.94 62.0134 115.83 60.6837C117.879 59.2463 120.411 58.4801 123.426 58.3853C125.009 58.3215 126.758 58.5382 128.671 59.0324Z" fill="#6933DC"/>
<path d="M45.7896 178.906L48.5902 178.129C51.5638 177.305 54.6415 179.048 55.4655 182.022L56.2601 184.893C57.0851 187.868 55.3414 190.946 52.3677 191.77L49.5672 192.547C46.5926 193.369 43.5158 191.627 42.6918 188.654L41.8962 185.781C41.0722 182.807 42.815 179.728 45.7896 178.906ZM28.8186 99.4993C36.0948 97.4868 42.3211 98.5701 47.5014 102.752C51.6079 106.046 54.4313 110.47 55.969 116.023C58.5405 125.308 56.7826 135.304 50.6915 146.009C48.5673 149.739 47.9464 153.57 48.8288 157.502C49.091 158.821 49.4385 160.268 49.8772 161.848C50.7011 164.822 48.9584 167.902 45.9838 168.724L43.185 169.5C40.2113 170.324 37.1319 168.581 36.3079 165.607C33.961 157.134 34.3004 150.265 37.3259 144.995C40.5891 139.296 42.4116 133.872 42.7878 128.717C42.9886 125.724 42.6734 122.719 41.8361 119.703C40.9754 116.594 39.6057 114.345 37.7251 112.957C35.6245 111.323 33.1658 111.102 30.3545 112.295C27.7182 113.384 26.2786 115.817 26.0376 119.597C26.0229 119.782 26.0108 119.969 26.0025 120.158C25.8739 122.924 23.7206 125.173 20.9645 125.441L18.2633 125.7C14.9167 126.022 12.0325 123.338 12.1334 119.978C12.2313 116.64 12.964 113.497 14.3307 110.547C15.8166 107.354 18.3633 104.638 21.9708 102.401C23.8554 101.21 26.1393 100.243 28.8186 99.4993Z" fill="#DCDCF3"/>
<path d="M521.994 176.687L526.503 177.853C531.29 179.092 534.164 183.978 532.925 188.765L531.727 193.385C530.488 198.176 525.602 201.05 520.815 199.811L516.306 198.645C511.519 197.403 508.645 192.52 509.884 187.733L511.082 183.109C512.321 178.322 517.207 175.445 521.994 176.687ZM562.065 52.8896C573.776 55.9266 581.548 62.4188 585.387 72.3728C588.446 80.2351 588.82 88.6371 586.505 97.5755C582.634 112.521 572.185 124.985 555.155 134.961C549.218 138.436 545.287 143.255 543.361 149.418C542.668 151.459 541.991 153.745 541.333 156.29C540.094 161.077 535.208 163.955 530.421 162.712L525.915 161.547C521.128 160.308 518.251 155.422 519.49 150.635C523.022 136.996 528.997 127.734 537.418 122.845C546.513 117.551 553.389 111.483 558.041 104.63C560.718 100.638 562.688 96.2151 563.943 91.3579C565.239 86.3538 565.14 82.1352 563.643 78.7022C562.036 74.7519 558.801 72.475 553.944 71.8779C549.413 71.2775 545.466 73.5001 542.103 78.5522C541.934 78.7981 541.768 79.0471 541.605 79.3026C539.21 83.0389 534.419 84.4345 530.38 82.5983L526.423 80.794C521.521 78.5585 519.669 72.5229 522.501 67.9403C525.312 63.3865 528.847 59.6118 533.107 56.6132C537.728 53.3718 543.438 51.6441 550.237 51.4302C553.807 51.2865 557.751 51.7751 562.065 52.8896Z" fill="#DCDCF3"/>
<path d="M454.27 61.3577L456.335 61.3395C458.528 61.3208 460.32 63.0838 460.338 65.2765L460.356 67.3932C460.375 69.5873 458.612 71.3792 456.419 71.3978L454.354 71.4161C452.161 71.4334 450.369 69.6718 450.351 67.4791L450.333 65.361C450.314 63.1683 452.077 61.375 454.27 61.3577ZM457.225 3.73108C462.59 3.6879 466.665 5.57669 469.451 9.39983C471.664 12.4164 472.788 15.9725 472.823 20.0669C472.88 26.9128 469.835 33.451 463.685 39.6789C461.541 41.8486 460.41 44.3639 460.293 47.2249C460.23 48.1785 460.202 49.2356 460.213 50.4014C460.231 52.594 458.469 54.3873 456.276 54.4046L454.212 54.4225C452.019 54.4412 450.226 52.6785 450.207 50.4859C450.155 44.2382 451.651 39.5856 454.697 36.5248C457.985 33.213 460.234 29.8249 461.44 26.3554C462.128 24.3384 462.465 22.2177 462.445 19.9931C462.426 17.7008 461.899 15.9052 460.864 14.6066C459.722 13.0989 458.075 12.4949 455.926 12.7966C453.916 13.0595 452.481 14.4646 451.62 17.0146C451.576 17.1393 451.533 17.2651 451.493 17.3932C450.896 19.2685 449.004 20.4161 447.063 20.0932L445.161 19.7745C442.805 19.3795 441.319 17.0068 442.006 14.7188C442.687 12.4457 443.768 10.4231 445.249 8.64968C446.856 6.73092 449.104 5.33554 451.991 4.46357C453.504 3.99224 455.249 3.74886 457.225 3.73108Z" fill="#6933DC"/>
<defs>
<clipPath id="clip0_102_289">
<rect width="587.132" height="384.416" fill="white" transform="translate(0 4.34619)"/>
</clipPath>
</defs>
</svg>
